<mxfile host="app.diagrams.net" agent="Mozilla/5.0 (Windows NT 10.0; Win64; x64) AppleWebKit/537.36 (KHTML, like Gecko) Chrome/127.0.0.0 Safari/537.36" version="24.7.6">
  <diagram name="Page-1" id="Page-1">
    <mxGraphModel dx="1430" dy="869" grid="1" gridSize="10" guides="1" tooltips="1" connect="1" arrows="1" fold="1" page="1" pageScale="1" pageWidth="850" pageHeight="1100" math="0" shadow="0">
      <root>
        <mxCell id="0" />
        <mxCell id="1" parent="0" />
        <UserObject label="" tags="Background" id="2">
          <mxCell style="vsdxID=110000;fillColor=none;gradientColor=none;strokeColor=none;spacingTop=-3;spacingBottom=-3;spacingLeft=-3;spacingRight=-3;points=[];labelBackgroundColor=none;rounded=0;html=1;whiteSpace=wrap;" parent="1" vertex="1">
            <mxGeometry x="60" y="180" width="320" height="180" as="geometry" />
          </mxCell>
        </UserObject>
        <mxCell id="3" value="&lt;div style=&quot;font-size: 1px&quot;&gt;&lt;font style=&quot;font-size:11.64px;font-family:Helvetica;color:#000000;direction:ltr;letter-spacing:0px;line-height:120%;opacity:1&quot;&gt;&lt;b&gt;directory&lt;/b&gt;&lt;/font&gt;&lt;/div&gt;" style="verticalAlign=middle;align=center;overflow=width;vsdxID=1;fillColor=#ffffff;gradientColor=none;shape=stencil(tVTbDoIwDP2avZKxhsE74n+QMGQRGRl4+3s3FzVsAlbjW9ud05yepSWQD03ZC8LoMGq1F2dZjQ2BDWFMdo3QcjQRgYJAXistdlodu8rlfWmRNjqok+1wcTxqGYxeXRbziKf3ytaBW9nNguk8MKZfQwMJJniJr2Xbutmf73+Y7KHpM8EosC/jB83I3nEWpQmqf0AAiAAwhGTJmgDNsXoyrB7vr6YGcaxBIWHFoJCwZFCIXjEoJKwY9GbiqUGT3fP2zgT+kTEld6CguAE=);strokeColor=#000000;spacingTop=-3;spacingBottom=-3;spacingLeft=-3;spacingRight=-3;points=[];labelBackgroundColor=none;rounded=0;html=1;whiteSpace=wrap;" parent="2" vertex="1">
          <mxGeometry width="320" height="180" as="geometry" />
        </mxCell>
        <mxCell id="4" style="vsdxID=210000;fillColor=none;gradientColor=none;strokeColor=none;spacingTop=-3;spacingBottom=-3;spacingLeft=-3;spacingRight=-3;points=[];labelBackgroundColor=none;rounded=0;html=1;whiteSpace=wrap;" parent="2" vertex="1">
          <mxGeometry y="30" width="320" height="30" as="geometry" />
        </mxCell>
        <mxCell id="5" value="&lt;div style=&quot;font-size: 1px&quot;&gt;&lt;font style=&quot;font-size:11.64px;font-family:Helvetica;color:#000000;direction:ltr;letter-spacing:0px;line-height:120%;opacity:1&quot;&gt;&lt;b&gt;PK&lt;/b&gt;&lt;/font&gt;&lt;/div&gt;" style="verticalAlign=middle;align=center;overflow=width;vsdxID=3;fillColor=none;gradientColor=none;shape=stencil(nZJZDsMgDERP43+Kj5Cm94gUUqxSiAjpcvuCrGahFVL4m8HPlkcYsJl0NyqQYgre3dST+qABzyAlWa08hagAW8BmcF5dvZttz37sEpnU3T3ShBf3idQhxXvrLgwashvwJKrRr/8LV6M7MIo14UDGLJWK4HuwGLyMZml+luRfPLhqaWg2MIr8DuIT3xC2Hw==);strokeColor=#000000;spacingTop=-3;spacingBottom=-3;spacingLeft=-3;spacingRight=-3;points=[];labelBackgroundColor=none;rounded=0;html=1;whiteSpace=wrap;" parent="4" vertex="1">
          <mxGeometry width="60" height="30" as="geometry" />
        </mxCell>
        <mxCell id="6" value="&lt;div style=&quot;font-size: 1px&quot;&gt;&lt;font style=&quot;font-size:11.64px;font-family:Helvetica;color:#000000;direction:ltr;letter-spacing:0px;line-height:120%;opacity:1&quot;&gt;&lt;u&gt;&lt;b&gt;directory_id&lt;/b&gt;&lt;/u&gt;&lt;/font&gt;&lt;/div&gt;" style="verticalAlign=middle;align=left;overflow=width;vsdxID=4;fillColor=none;gradientColor=none;shape=stencil(nZJZDsMgDERP43+Kj5Cm94gUUqxSiAjpcvuCrGahFVL4m8HPlkcYsJl0NyqQYgre3dST+qABzyAlWa08hagAW8BmcF5dvZttz37sEpnU3T3ShBf3idQhxXvrLgwashvwJKrRr/8LV6M7MIo14UDGLJWK4HuwGLyMZml+luRfPLhqaWg2MIr8DuIT3xC2Hw==);strokeColor=#000000;spacingTop=-3;spacingBottom=-3;spacingLeft=-3;spacingRight=-3;points=[];labelBackgroundColor=none;rounded=0;html=1;whiteSpace=wrap;" parent="4" vertex="1">
          <mxGeometry x="60" width="160" height="30" as="geometry" />
        </mxCell>
        <mxCell id="7" value="&lt;div style=&quot;font-size: 1px&quot;&gt;&lt;font style=&quot;font-size:11.64px;font-family:Helvetica;color:#000000;direction:ltr;letter-spacing:0px;line-height:120%;opacity:1&quot;&gt;&lt;u&gt;&lt;b&gt;bigint&lt;/b&gt;&lt;/u&gt;&lt;/font&gt;&lt;/div&gt;" style="verticalAlign=middle;align=left;overflow=width;vsdxID=5;fillColor=none;gradientColor=none;shape=stencil(nZJZDsMgDERP43+Kj5Cm94gUUqxSiAjpcvuCrGahFVL4m8HPlkcYsJl0NyqQYgre3dST+qABzyAlWa08hagAW8BmcF5dvZttz37sEpnU3T3ShBf3idQhxXvrLgwashvwJKrRr/8LV6M7MIo14UDGLJWK4HuwGLyMZml+luRfPLhqaWg2MIr8DuIT3xC2Hw==);strokeColor=#000000;spacingTop=-3;spacingBottom=-3;spacingLeft=-3;spacingRight=-3;points=[];labelBackgroundColor=none;rounded=0;html=1;whiteSpace=wrap;" parent="4" vertex="1">
          <mxGeometry x="220" width="100" height="30" as="geometry" />
        </mxCell>
        <mxCell id="8" style="vsdxID=610000;fillColor=none;gradientColor=none;strokeColor=none;spacingTop=-3;spacingBottom=-3;spacingLeft=-3;spacingRight=-3;points=[];labelBackgroundColor=none;rounded=0;html=1;whiteSpace=wrap;" parent="2" vertex="1">
          <mxGeometry y="60" width="320" height="30" as="geometry" />
        </mxCell>
        <mxCell id="9" style="vsdxID=7;fillColor=none;gradientColor=none;shape=stencil(nZJZDsMgDERP43+Kj5Cm94gUUqxSiAjpcvuCrGahFVL4m8HPlkcYsJl0NyqQYgre3dST+qABzyAlWa08hagAW8BmcF5dvZttz37sEpnU3T3ShBf3idQhxXvrLgwashvwJKrRr/8LV6M7MIo14UDGLJWK4HuwGLyMZml+luRfPLhqaWg2MIr8DuIT3xC2Hw==);strokeColor=#000000;spacingTop=-3;spacingBottom=-3;spacingLeft=-3;spacingRight=-3;points=[];labelBackgroundColor=none;rounded=0;html=1;whiteSpace=wrap;" parent="8" vertex="1">
          <mxGeometry width="60" height="30" as="geometry" />
        </mxCell>
        <mxCell id="10" value="&lt;div style=&quot;font-size: 1px&quot;&gt;&lt;font style=&quot;font-size:11.64px;font-family:Helvetica;color:#000000;direction:ltr;letter-spacing:0px;line-height:120%;opacity:1&quot;&gt;uri&lt;/font&gt;&lt;/div&gt;" style="verticalAlign=middle;align=left;overflow=width;vsdxID=8;fillColor=none;gradientColor=none;shape=stencil(nZJZDsMgDERP43+Kj5Cm94gUUqxSiAjpcvuCrGahFVL4m8HPlkcYsJl0NyqQYgre3dST+qABzyAlWa08hagAW8BmcF5dvZttz37sEpnU3T3ShBf3idQhxXvrLgwashvwJKrRr/8LV6M7MIo14UDGLJWK4HuwGLyMZml+luRfPLhqaWg2MIr8DuIT3xC2Hw==);strokeColor=#000000;spacingTop=-3;spacingBottom=-3;spacingLeft=-3;spacingRight=-3;points=[];labelBackgroundColor=none;rounded=0;html=1;whiteSpace=wrap;" parent="8" vertex="1">
          <mxGeometry x="60" width="160" height="30" as="geometry" />
        </mxCell>
        <mxCell id="11" value="&lt;div style=&quot;font-size: 1px&quot;&gt;&lt;font style=&quot;font-size:11.64px;font-family:Helvetica;color:#000000;direction:ltr;letter-spacing:0px;line-height:120%;opacity:1&quot;&gt;text&lt;/font&gt;&lt;/div&gt;" style="verticalAlign=middle;align=left;overflow=width;vsdxID=9;fillColor=none;gradientColor=none;shape=stencil(nZJZDsMgDERP43+Kj5Cm94gUUqxSiAjpcvuCrGahFVL4m8HPlkcYsJl0NyqQYgre3dST+qABzyAlWa08hagAW8BmcF5dvZttz37sEpnU3T3ShBf3idQhxXvrLgwashvwJKrRr/8LV6M7MIo14UDGLJWK4HuwGLyMZml+luRfPLhqaWg2MIr8DuIT3xC2Hw==);strokeColor=#000000;spacingTop=-3;spacingBottom=-3;spacingLeft=-3;spacingRight=-3;points=[];labelBackgroundColor=none;rounded=0;html=1;whiteSpace=wrap;" parent="8" vertex="1">
          <mxGeometry x="220" width="100" height="30" as="geometry" />
        </mxCell>
        <mxCell id="12" style="vsdxID=1010000;fillColor=none;gradientColor=none;strokeColor=none;spacingTop=-3;spacingBottom=-3;spacingLeft=-3;spacingRight=-3;points=[];labelBackgroundColor=none;rounded=0;html=1;whiteSpace=wrap;" parent="2" vertex="1">
          <mxGeometry y="90" width="320" height="30" as="geometry" />
        </mxCell>
        <mxCell id="13" style="vsdxID=11;fillColor=none;gradientColor=none;shape=stencil(nZJZDsMgDERP43+Kj5Cm94gUUqxSiAjpcvuCrGahFVL4m8HPlkcYsJl0NyqQYgre3dST+qABzyAlWa08hagAW8BmcF5dvZttz37sEpnU3T3ShBf3idQhxXvrLgwashvwJKrRr/8LV6M7MIo14UDGLJWK4HuwGLyMZml+luRfPLhqaWg2MIr8DuIT3xC2Hw==);strokeColor=#000000;spacingTop=-3;spacingBottom=-3;spacingLeft=-3;spacingRight=-3;points=[];labelBackgroundColor=none;rounded=0;html=1;whiteSpace=wrap;" parent="12" vertex="1">
          <mxGeometry width="60" height="30" as="geometry" />
        </mxCell>
        <mxCell id="14" value="&lt;div style=&quot;font-size: 1px&quot;&gt;&lt;font style=&quot;font-size:11.64px;font-family:Helvetica;color:#000000;direction:ltr;letter-spacing:0px;line-height:120%;opacity:1&quot;&gt;access&lt;/font&gt;&lt;/div&gt;" style="verticalAlign=middle;align=left;overflow=width;vsdxID=12;fillColor=none;gradientColor=none;shape=stencil(nZJZDsMgDERP43+Kj5Cm94gUUqxSiAjpcvuCrGahFVL4m8HPlkcYsJl0NyqQYgre3dST+qABzyAlWa08hagAW8BmcF5dvZttz37sEpnU3T3ShBf3idQhxXvrLgwashvwJKrRr/8LV6M7MIo14UDGLJWK4HuwGLyMZml+luRfPLhqaWg2MIr8DuIT3xC2Hw==);strokeColor=#000000;spacingTop=-3;spacingBottom=-3;spacingLeft=-3;spacingRight=-3;points=[];labelBackgroundColor=none;rounded=0;html=1;whiteSpace=wrap;" parent="12" vertex="1">
          <mxGeometry x="60" width="160" height="30" as="geometry" />
        </mxCell>
        <mxCell id="15" value="&lt;div style=&quot;font-size: 1px&quot;&gt;&lt;font style=&quot;font-size:11.64px;font-family:Helvetica;color:#000000;direction:ltr;letter-spacing:0px;line-height:120%;opacity:1&quot;&gt;access_type&lt;/font&gt;&lt;/div&gt;" style="verticalAlign=middle;align=left;overflow=width;vsdxID=13;fillColor=none;gradientColor=none;shape=stencil(nZJZDsMgDERP43+Kj5Cm94gUUqxSiAjpcvuCrGahFVL4m8HPlkcYsJl0NyqQYgre3dST+qABzyAlWa08hagAW8BmcF5dvZttz37sEpnU3T3ShBf3idQhxXvrLgwashvwJKrRr/8LV6M7MIo14UDGLJWK4HuwGLyMZml+luRfPLhqaWg2MIr8DuIT3xC2Hw==);strokeColor=#000000;spacingTop=-3;spacingBottom=-3;spacingLeft=-3;spacingRight=-3;points=[];labelBackgroundColor=none;rounded=0;html=1;whiteSpace=wrap;" parent="12" vertex="1">
          <mxGeometry x="220" width="100" height="30" as="geometry" />
        </mxCell>
        <mxCell id="16" style="vsdxID=1410000;fillColor=none;gradientColor=none;strokeColor=none;spacingTop=-3;spacingBottom=-3;spacingLeft=-3;spacingRight=-3;points=[];labelBackgroundColor=none;rounded=0;html=1;whiteSpace=wrap;" parent="2" vertex="1">
          <mxGeometry y="120" width="320" height="30" as="geometry" />
        </mxCell>
        <mxCell id="17" style="vsdxID=15;fillColor=none;gradientColor=none;shape=stencil(nZJZDsMgDERP43+Kj5Cm94gUUqxSiAjpcvuCrGahFVL4m8HPlkcYsJl0NyqQYgre3dST+qABzyAlWa08hagAW8BmcF5dvZttz37sEpnU3T3ShBf3idQhxXvrLgwashvwJKrRr/8LV6M7MIo14UDGLJWK4HuwGLyMZml+luRfPLhqaWg2MIr8DuIT3xC2Hw==);strokeColor=#000000;spacingTop=-3;spacingBottom=-3;spacingLeft=-3;spacingRight=-3;points=[];labelBackgroundColor=none;rounded=0;html=1;whiteSpace=wrap;" parent="16" vertex="1">
          <mxGeometry width="60" height="30" as="geometry" />
        </mxCell>
        <mxCell id="18" value="&lt;div style=&quot;font-size: 1px&quot;&gt;&lt;font style=&quot;font-size:11.64px;font-family:Helvetica;color:#000000;direction:ltr;letter-spacing:0px;line-height:120%;opacity:1&quot;&gt;creation_datetime&lt;/font&gt;&lt;/div&gt;" style="verticalAlign=middle;align=left;overflow=width;vsdxID=16;fillColor=none;gradientColor=none;shape=stencil(nZJZDsMgDERP43+Kj5Cm94gUUqxSiAjpcvuCrGahFVL4m8HPlkcYsJl0NyqQYgre3dST+qABzyAlWa08hagAW8BmcF5dvZttz37sEpnU3T3ShBf3idQhxXvrLgwashvwJKrRr/8LV6M7MIo14UDGLJWK4HuwGLyMZml+luRfPLhqaWg2MIr8DuIT3xC2Hw==);strokeColor=#000000;spacingTop=-3;spacingBottom=-3;spacingLeft=-3;spacingRight=-3;points=[];labelBackgroundColor=none;rounded=0;html=1;whiteSpace=wrap;" parent="16" vertex="1">
          <mxGeometry x="60" width="160" height="30" as="geometry" />
        </mxCell>
        <mxCell id="19" value="&lt;div style=&quot;font-size: 1px&quot;&gt;&lt;font style=&quot;font-size:11.64px;font-family:Helvetica;color:#000000;direction:ltr;letter-spacing:0px;line-height:120%;opacity:1&quot;&gt;datetime&lt;/font&gt;&lt;/div&gt;" style="verticalAlign=middle;align=left;overflow=width;vsdxID=17;fillColor=none;gradientColor=none;shape=stencil(nZJZDsMgDERP43+Kj5Cm94gUUqxSiAjpcvuCrGahFVL4m8HPlkcYsJl0NyqQYgre3dST+qABzyAlWa08hagAW8BmcF5dvZttz37sEpnU3T3ShBf3idQhxXvrLgwashvwJKrRr/8LV6M7MIo14UDGLJWK4HuwGLyMZml+luRfPLhqaWg2MIr8DuIT3xC2Hw==);strokeColor=#000000;spacingTop=-3;spacingBottom=-3;spacingLeft=-3;spacingRight=-3;points=[];labelBackgroundColor=none;rounded=0;html=1;whiteSpace=wrap;" parent="16" vertex="1">
          <mxGeometry x="220" width="100" height="30" as="geometry" />
        </mxCell>
        <mxCell id="20" style="vsdxID=1810000;fillColor=none;gradientColor=none;strokeColor=none;spacingTop=-3;spacingBottom=-3;spacingLeft=-3;spacingRight=-3;points=[];labelBackgroundColor=none;rounded=0;html=1;whiteSpace=wrap;" parent="2" vertex="1">
          <mxGeometry y="150" width="320" height="30" as="geometry" />
        </mxCell>
        <mxCell id="21" style="vsdxID=19;fillColor=none;gradientColor=none;shape=stencil(nZJZDsMgDERP43+Kj5Cm94gUUqxSiAjpcvuCrGahFVL4m8HPlkcYsJl0NyqQYgre3dST+qABzyAlWa08hagAW8BmcF5dvZttz37sEpnU3T3ShBf3idQhxXvrLgwashvwJKrRr/8LV6M7MIo14UDGLJWK4HuwGLyMZml+luRfPLhqaWg2MIr8DuIT3xC2Hw==);strokeColor=#000000;spacingTop=-3;spacingBottom=-3;spacingLeft=-3;spacingRight=-3;points=[];labelBackgroundColor=none;rounded=0;html=1;whiteSpace=wrap;" parent="20" vertex="1">
          <mxGeometry width="60" height="30" as="geometry" />
        </mxCell>
        <mxCell id="22" value="&lt;div style=&quot;font-size: 1px&quot;&gt;&lt;font style=&quot;font-size:11.64px;font-family:monospace;color:#000000;direction:ltr;letter-spacing:0px;line-height:120%;opacity:1&quot;&gt;&lt;br/&gt;&lt;/font&gt;&lt;/div&gt;" style="verticalAlign=middle;align=left;overflow=width;vsdxID=20;fillColor=none;gradientColor=none;shape=stencil(nZJZDsMgDERP43+Kj5Cm94gUUqxSiAjpcvuCrGahFVL4m8HPlkcYsJl0NyqQYgre3dST+qABzyAlWa08hagAW8BmcF5dvZttz37sEpnU3T3ShBf3idQhxXvrLgwashvwJKrRr/8LV6M7MIo14UDGLJWK4HuwGLyMZml+luRfPLhqaWg2MIr8DuIT3xC2Hw==);strokeColor=#000000;spacingTop=-3;spacingBottom=-3;spacingLeft=-3;spacingRight=-3;points=[];labelBackgroundColor=none;rounded=0;html=1;whiteSpace=wrap;" parent="20" vertex="1">
          <mxGeometry x="60" width="160" height="30" as="geometry" />
        </mxCell>
        <mxCell id="23" value="&lt;div style=&quot;font-size: 1px&quot;&gt;&lt;font style=&quot;font-size:11.64px;font-family:Helvetica;color:#000000;direction:ltr;letter-spacing:0px;line-height:120%;opacity:1&quot;&gt;bigint&lt;/font&gt;&lt;/div&gt;" style="verticalAlign=middle;align=left;overflow=width;vsdxID=21;fillColor=none;gradientColor=none;shape=stencil(nZJZDsMgDERP43+Kj5Cm94gUUqxSiAjpcvuCrGahFVL4m8HPlkcYsJl0NyqQYgre3dST+qABzyAlWa08hagAW8BmcF5dvZttz37sEpnU3T3ShBf3idQhxXvrLgwashvwJKrRr/8LV6M7MIo14UDGLJWK4HuwGLyMZml+luRfPLhqaWg2MIr8DuIT3xC2Hw==);strokeColor=#000000;spacingTop=-3;spacingBottom=-3;spacingLeft=-3;spacingRight=-3;points=[];labelBackgroundColor=none;rounded=0;html=1;whiteSpace=wrap;" parent="20" vertex="1">
          <mxGeometry x="220" width="100" height="30" as="geometry" />
        </mxCell>
        <UserObject label="&lt;div style=&quot;font-size: 1px&quot;&gt;&lt;font style=&quot;font-size:29.1px;font-family:Helvetica;color:#000000;direction:ltr;letter-spacing:0px;line-height:120%;opacity:1&quot;&gt;Datamodel&lt;/font&gt;&lt;/div&gt;" tags="Background" id="24">
          <mxCell style="verticalAlign=middle;align=center;overflow=width;vsdxID=22;fillColor=none;gradientColor=none;shape=stencil(nZBRDoQgDERP03+WHsHFe5iISyOCQdT19kIaIxq//Jtp3zTpAFaTaUYNUkwx+F6v1EYD+AUpyRkdKCYFqACrzgf9C352LfuxyWRWg1/yhT/nRE5IsZWuZtCSK8CPeI0e/hF+jV7AJM4PO7KWCyr390bSiNtEtQM=);strokeColor=none;spacingTop=-3;spacingBottom=-3;spacingLeft=-3;spacingRight=-3;points=[];labelBackgroundColor=none;rounded=0;html=1;whiteSpace=wrap;" parent="1" vertex="1">
            <mxGeometry x="384" y="60" width="60" height="30" as="geometry" />
          </mxCell>
        </UserObject>
        <UserObject label="&lt;div style=&quot;font-size: 1px&quot;&gt;&lt;font style=&quot;font-size:29.1px;font-family:Helvetica;color:#000000;direction:ltr;letter-spacing:0px;line-height:120%;opacity:1&quot;&gt;v 1.3.0&lt;/font&gt;&lt;/div&gt;" tags="Background" id="25">
          <mxCell style="verticalAlign=middle;align=center;overflow=width;vsdxID=23;fillColor=none;gradientColor=none;shape=stencil(nZBRDoQgDERP03+WHsHFe5iISyOCQdT19kIaIxq//Jtp3zTpAFaTaUYNUkwx+F6v1EYD+AUpyRkdKCYFqACrzgf9C352LfuxyWRWg1/yhT/nRE5IsZWuZtCSK8CPeI0e/hF+jV7AJM4PO7KWCyr390bSiNtEtQM=);strokeColor=none;spacingTop=-3;spacingBottom=-3;spacingLeft=-3;spacingRight=-3;points=[];labelBackgroundColor=none;rounded=0;html=1;whiteSpace=wrap;" parent="1" vertex="1">
            <mxGeometry x="660" y="60" width="110" height="30" as="geometry" />
          </mxCell>
        </UserObject>
        <UserObject label="" tags="Background" id="26">
          <mxCell style="vsdxID=2410000;fillColor=none;gradientColor=none;strokeColor=none;spacingTop=-3;spacingBottom=-3;spacingLeft=-3;spacingRight=-3;points=[];labelBackgroundColor=none;rounded=0;html=1;whiteSpace=wrap;" parent="1" vertex="1">
            <mxGeometry x="450" y="150" width="350" height="150" as="geometry" />
          </mxCell>
        </UserObject>
        <mxCell id="27" value="&lt;div style=&quot;font-size: 1px&quot;&gt;&lt;font style=&quot;font-size:11.64px;font-family:Helvetica;color:#000000;direction:ltr;letter-spacing:0px;line-height:120%;opacity:1&quot;&gt;&lt;b&gt;shared_assets&lt;/b&gt;&lt;/font&gt;&lt;/div&gt;" style="verticalAlign=middle;align=center;overflow=width;vsdxID=24;fillColor=#ffffff;gradientColor=none;shape=stencil(rZTLDoMgEEW/ZrYGwVD31v6HiVhIrRikr78vhD4CpERMd3fgMLmXDABpFt7NDDBatJIndhO95kD2gLGYOFNCGwWkBdIMUrGjkpepd/XcWdKqs7zaDnd3DtkTGD1c9SoPjhzF9JNMgCXajPqsEV/bgxhHl/qz/+9MbzerrGbBvoetbnO6lruirNZ3jugqi6ZZdJ1FBxftx6S4qOnqmDGdihnTqZgxnYoZ00FMb/aDuTcifN5myX0NpH0C);strokeColor=#000000;spacingTop=-3;spacingBottom=-3;spacingLeft=-3;spacingRight=-3;points=[];labelBackgroundColor=none;rounded=0;html=1;whiteSpace=wrap;" parent="26" vertex="1">
          <mxGeometry width="350" height="150" as="geometry" />
        </mxCell>
        <mxCell id="28" style="vsdxID=2510000;fillColor=none;gradientColor=none;strokeColor=none;spacingTop=-3;spacingBottom=-3;spacingLeft=-3;spacingRight=-3;points=[];labelBackgroundColor=none;rounded=0;html=1;whiteSpace=wrap;" parent="26" vertex="1">
          <mxGeometry y="30" width="350" height="30" as="geometry" />
        </mxCell>
        <mxCell id="29" value="&lt;div style=&quot;font-size: 1px&quot;&gt;&lt;font style=&quot;font-size:11.64px;font-family:Helvetica;color:#000000;direction:ltr;letter-spacing:0px;line-height:120%;opacity:1&quot;&gt;&lt;b&gt;PK&lt;/b&gt;&lt;/font&gt;&lt;/div&gt;" style="verticalAlign=middle;align=center;overflow=width;vsdxID=26;fillColor=none;gradientColor=none;shape=stencil(nZJZDsMgDERP43+Kj5Cm94gUUqxSiAjpcvuCrGahFVL4m8HPlkcYsJl0NyqQYgre3dST+qABzyAlWa08hagAW8BmcF5dvZttz37sEpnU3T3ShBf3idQhxXvrLgwashvwJKrRr/8LV6M7MIo14UDGLJWK4HuwGLyMZml+luRfPLhqaWg2MIr8DuIT3xC2Hw==);strokeColor=#000000;spacingTop=-3;spacingBottom=-3;spacingLeft=-3;spacingRight=-3;points=[];labelBackgroundColor=none;rounded=0;html=1;whiteSpace=wrap;" parent="28" vertex="1">
          <mxGeometry width="60" height="30" as="geometry" />
        </mxCell>
        <mxCell id="30" value="&lt;div style=&quot;font-size: 1px&quot;&gt;&lt;font style=&quot;font-size:11.64px;font-family:Helvetica;color:#000000;direction:ltr;letter-spacing:0px;line-height:120%;opacity:1&quot;&gt;&lt;u&gt;&lt;b&gt;shared_asset_id&lt;/b&gt;&lt;/u&gt;&lt;/font&gt;&lt;/div&gt;" style="verticalAlign=middle;align=left;overflow=width;vsdxID=27;fillColor=none;gradientColor=none;shape=stencil(nZJZDsMgDERP43+Kj5Cm94gUUqxSiAjpcvuCrGahFVL4m8HPlkcYsJl0NyqQYgre3dST+qABzyAlWa08hagAW8BmcF5dvZttz37sEpnU3T3ShBf3idQhxXvrLgwashvwJKrRr/8LV6M7MIo14UDGLJWK4HuwGLyMZml+luRfPLhqaWg2MIr8DuIT3xC2Hw==);strokeColor=#000000;spacingTop=-3;spacingBottom=-3;spacingLeft=-3;spacingRight=-3;points=[];labelBackgroundColor=none;rounded=0;html=1;whiteSpace=wrap;" parent="28" vertex="1">
          <mxGeometry x="60" width="160" height="30" as="geometry" />
        </mxCell>
        <mxCell id="31" value="&lt;div style=&quot;font-size: 1px&quot;&gt;&lt;font style=&quot;font-size:11.64px;font-family:Helvetica;color:#000000;direction:ltr;letter-spacing:0px;line-height:120%;opacity:1&quot;&gt;&lt;u&gt;&lt;b&gt;bigint&lt;/b&gt;&lt;/u&gt;&lt;/font&gt;&lt;/div&gt;" style="verticalAlign=middle;align=left;overflow=width;vsdxID=28;fillColor=none;gradientColor=none;shape=stencil(nZJZDsMgDERP43+Kj5Cm94gUUqxSiAjpcvuCrGahFVL4m8HPlkcYsJl0NyqQYgre3dST+qABzyAlWa08hagAW8BmcF5dvZttz37sEpnU3T3ShBf3idQhxXvrLgwashvwJKrRr/8LV6M7MIo14UDGLJWK4HuwGLyMZml+luRfPLhqaWg2MIr8DuIT3xC2Hw==);strokeColor=#000000;spacingTop=-3;spacingBottom=-3;spacingLeft=-3;spacingRight=-3;points=[];labelBackgroundColor=none;rounded=0;html=1;whiteSpace=wrap;" parent="28" vertex="1">
          <mxGeometry x="220" width="130" height="30" as="geometry" />
        </mxCell>
        <mxCell id="32" style="vsdxID=2910000;fillColor=none;gradientColor=none;strokeColor=none;spacingTop=-3;spacingBottom=-3;spacingLeft=-3;spacingRight=-3;points=[];labelBackgroundColor=none;rounded=0;html=1;whiteSpace=wrap;" parent="26" vertex="1">
          <mxGeometry y="60" width="350" height="30" as="geometry" />
        </mxCell>
        <mxCell id="33" value="&lt;div style=&quot;font-size: 1px&quot;&gt;&lt;font style=&quot;font-size:11.64px;font-family:Helvetica;color:#000000;direction:ltr;letter-spacing:0px;line-height:120%;opacity:1&quot;&gt;FK&lt;/font&gt;&lt;/div&gt;" style="verticalAlign=middle;align=center;overflow=width;vsdxID=30;fillColor=none;gradientColor=none;shape=stencil(nZJZDsMgDERP43+Kj5Cm94gUUqxSiAjpcvuCrGahFVL4m8HPlkcYsJl0NyqQYgre3dST+qABzyAlWa08hagAW8BmcF5dvZttz37sEpnU3T3ShBf3idQhxXvrLgwashvwJKrRr/8LV6M7MIo14UDGLJWK4HuwGLyMZml+luRfPLhqaWg2MIr8DuIT3xC2Hw==);strokeColor=#000000;spacingTop=-3;spacingBottom=-3;spacingLeft=-3;spacingRight=-3;points=[];labelBackgroundColor=none;rounded=0;html=1;whiteSpace=wrap;" parent="32" vertex="1">
          <mxGeometry width="60" height="30" as="geometry" />
        </mxCell>
        <mxCell id="34" value="&lt;div style=&quot;font-size: 1px&quot;&gt;&lt;font style=&quot;font-size:11.64px;font-family:Helvetica;color:#000000;direction:ltr;letter-spacing:0px;line-height:120%;opacity:1&quot;&gt;work_dir_id&lt;/font&gt;&lt;/div&gt;" style="verticalAlign=middle;align=left;overflow=width;vsdxID=31;fillColor=none;gradientColor=none;shape=stencil(nZJZDsMgDERP43+Kj5Cm94gUUqxSiAjpcvuCrGahFVL4m8HPlkcYsJl0NyqQYgre3dST+qABzyAlWa08hagAW8BmcF5dvZttz37sEpnU3T3ShBf3idQhxXvrLgwashvwJKrRr/8LV6M7MIo14UDGLJWK4HuwGLyMZml+luRfPLhqaWg2MIr8DuIT3xC2Hw==);strokeColor=#000000;spacingTop=-3;spacingBottom=-3;spacingLeft=-3;spacingRight=-3;points=[];labelBackgroundColor=none;rounded=0;html=1;whiteSpace=wrap;" parent="32" vertex="1">
          <mxGeometry x="60" width="160" height="30" as="geometry" />
        </mxCell>
        <mxCell id="35" value="&lt;div style=&quot;font-size: 1px&quot;&gt;&lt;font style=&quot;font-size:11.64px;font-family:Helvetica;color:#000000;direction:ltr;letter-spacing:0px;line-height:120%;opacity:1&quot;&gt;bigint&lt;/font&gt;&lt;/div&gt;" style="verticalAlign=middle;align=left;overflow=width;vsdxID=32;fillColor=none;gradientColor=none;shape=stencil(nZJZDsMgDERP43+Kj5Cm94gUUqxSiAjpcvuCrGahFVL4m8HPlkcYsJl0NyqQYgre3dST+qABzyAlWa08hagAW8BmcF5dvZttz37sEpnU3T3ShBf3idQhxXvrLgwashvwJKrRr/8LV6M7MIo14UDGLJWK4HuwGLyMZml+luRfPLhqaWg2MIr8DuIT3xC2Hw==);strokeColor=#000000;spacingTop=-3;spacingBottom=-3;spacingLeft=-3;spacingRight=-3;points=[];labelBackgroundColor=none;rounded=0;html=1;whiteSpace=wrap;" parent="32" vertex="1">
          <mxGeometry x="220" width="130" height="30" as="geometry" />
        </mxCell>
        <mxCell id="36" style="vsdxID=3310000;fillColor=none;gradientColor=none;strokeColor=none;spacingTop=-3;spacingBottom=-3;spacingLeft=-3;spacingRight=-3;points=[];labelBackgroundColor=none;rounded=0;html=1;whiteSpace=wrap;" parent="26" vertex="1">
          <mxGeometry y="90" width="350" height="30" as="geometry" />
        </mxCell>
        <mxCell id="37" style="vsdxID=34;fillColor=none;gradientColor=none;shape=stencil(nZJZDsMgDERP43+Kj5Cm94gUUqxSiAjpcvuCrGahFVL4m8HPlkcYsJl0NyqQYgre3dST+qABzyAlWa08hagAW8BmcF5dvZttz37sEpnU3T3ShBf3idQhxXvrLgwashvwJKrRr/8LV6M7MIo14UDGLJWK4HuwGLyMZml+luRfPLhqaWg2MIr8DuIT3xC2Hw==);strokeColor=#000000;spacingTop=-3;spacingBottom=-3;spacingLeft=-3;spacingRight=-3;points=[];labelBackgroundColor=none;rounded=0;html=1;whiteSpace=wrap;" parent="36" vertex="1">
          <mxGeometry width="60" height="30" as="geometry" />
        </mxCell>
        <mxCell id="38" value="&lt;div style=&quot;font-size: 1px&quot;&gt;&lt;font style=&quot;font-size:11.64px;font-family:Helvetica;color:#000000;direction:ltr;letter-spacing:0px;line-height:120%;opacity:1&quot;&gt;asset_guid&lt;/font&gt;&lt;/div&gt;" style="verticalAlign=middle;align=left;overflow=width;vsdxID=35;fillColor=none;gradientColor=none;shape=stencil(nZJZDsMgDERP43+Kj5Cm94gUUqxSiAjpcvuCrGahFVL4m8HPlkcYsJl0NyqQYgre3dST+qABzyAlWa08hagAW8BmcF5dvZttz37sEpnU3T3ShBf3idQhxXvrLgwashvwJKrRr/8LV6M7MIo14UDGLJWK4HuwGLyMZml+luRfPLhqaWg2MIr8DuIT3xC2Hw==);strokeColor=#000000;spacingTop=-3;spacingBottom=-3;spacingLeft=-3;spacingRight=-3;points=[];labelBackgroundColor=none;rounded=0;html=1;whiteSpace=wrap;" parent="36" vertex="1">
          <mxGeometry x="60" width="160" height="30" as="geometry" />
        </mxCell>
        <mxCell id="39" value="&lt;div style=&quot;font-size: 1px&quot;&gt;&lt;font style=&quot;font-size:11.64px;font-family:Helvetica;color:#000000;direction:ltr;letter-spacing:0px;line-height:120%;opacity:1&quot;&gt;text&lt;/font&gt;&lt;/div&gt;" style="verticalAlign=middle;align=left;overflow=width;vsdxID=36;fillColor=none;gradientColor=none;shape=stencil(nZJZDsMgDERP43+Kj5Cm94gUUqxSiAjpcvuCrGahFVL4m8HPlkcYsJl0NyqQYgre3dST+qABzyAlWa08hagAW8BmcF5dvZttz37sEpnU3T3ShBf3idQhxXvrLgwashvwJKrRr/8LV6M7MIo14UDGLJWK4HuwGLyMZml+luRfPLhqaWg2MIr8DuIT3xC2Hw==);strokeColor=#000000;spacingTop=-3;spacingBottom=-3;spacingLeft=-3;spacingRight=-3;points=[];labelBackgroundColor=none;rounded=0;html=1;whiteSpace=wrap;" parent="36" vertex="1">
          <mxGeometry x="220" width="130" height="30" as="geometry" />
        </mxCell>
        <mxCell id="40" style="vsdxID=3710000;fillColor=none;gradientColor=none;strokeColor=none;spacingTop=-3;spacingBottom=-3;spacingLeft=-3;spacingRight=-3;points=[];labelBackgroundColor=none;rounded=0;html=1;whiteSpace=wrap;" parent="26" vertex="1">
          <mxGeometry y="120" width="350" height="30" as="geometry" />
        </mxCell>
        <mxCell id="41" style="vsdxID=38;fillColor=none;gradientColor=none;shape=stencil(nZJZDsMgDERP43+Kj5Cm94gUUqxSiAjpcvuCrGahFVL4m8HPlkcYsJl0NyqQYgre3dST+qABzyAlWa08hagAW8BmcF5dvZttz37sEpnU3T3ShBf3idQhxXvrLgwashvwJKrRr/8LV6M7MIo14UDGLJWK4HuwGLyMZml+luRfPLhqaWg2MIr8DuIT3xC2Hw==);strokeColor=#000000;spacingTop=-3;spacingBottom=-3;spacingLeft=-3;spacingRight=-3;points=[];labelBackgroundColor=none;rounded=0;html=1;whiteSpace=wrap;" parent="40" vertex="1">
          <mxGeometry width="60" height="30" as="geometry" />
        </mxCell>
        <mxCell id="42" value="&lt;div style=&quot;font-size: 1px&quot;&gt;&lt;font style=&quot;font-size:11.64px;font-family:Helvetica;color:#000000;direction:ltr;letter-spacing:0px;line-height:120%;opacity:1&quot;&gt;creation_datetime&lt;/font&gt;&lt;/div&gt;" style="verticalAlign=middle;align=left;overflow=width;vsdxID=39;fillColor=none;gradientColor=none;shape=stencil(nZJZDsMgDERP43+Kj5Cm94gUUqxSiAjpcvuCrGahFVL4m8HPlkcYsJl0NyqQYgre3dST+qABzyAlWa08hagAW8BmcF5dvZttz37sEpnU3T3ShBf3idQhxXvrLgwashvwJKrRr/8LV6M7MIo14UDGLJWK4HuwGLyMZml+luRfPLhqaWg2MIr8DuIT3xC2Hw==);strokeColor=#000000;spacingTop=-3;spacingBottom=-3;spacingLeft=-3;spacingRight=-3;points=[];labelBackgroundColor=none;rounded=0;html=1;whiteSpace=wrap;" parent="40" vertex="1">
          <mxGeometry x="60" width="160" height="30" as="geometry" />
        </mxCell>
        <mxCell id="43" value="&lt;div style=&quot;font-size: 1px&quot;&gt;&lt;font style=&quot;font-size:11.64px;font-family:Helvetica;color:#000000;direction:ltr;letter-spacing:0px;line-height:120%;opacity:1&quot;&gt;datetime&lt;/font&gt;&lt;/div&gt;" style="verticalAlign=middle;align=left;overflow=width;vsdxID=40;fillColor=none;gradientColor=none;shape=stencil(nZJZDsMgDERP43+Kj5Cm94gUUqxSiAjpcvuCrGahFVL4m8HPlkcYsJl0NyqQYgre3dST+qABzyAlWa08hagAW8BmcF5dvZttz37sEpnU3T3ShBf3idQhxXvrLgwashvwJKrRr/8LV6M7MIo14UDGLJWK4HuwGLyMZml+luRfPLhqaWg2MIr8DuIT3xC2Hw==);strokeColor=#000000;spacingTop=-3;spacingBottom=-3;spacingLeft=-3;spacingRight=-3;points=[];labelBackgroundColor=none;rounded=0;html=1;whiteSpace=wrap;" parent="40" vertex="1">
          <mxGeometry x="220" width="130" height="30" as="geometry" />
        </mxCell>
        <UserObject label="" tags="Background" id="44">
          <mxCell style="vsdxID=4110000;fillColor=none;gradientColor=none;strokeColor=none;spacingTop=-3;spacingBottom=-3;spacingLeft=-3;spacingRight=-3;points=[];labelBackgroundColor=none;rounded=0;html=1;whiteSpace=wrap;" parent="1" vertex="1">
            <mxGeometry x="60" y="400" width="336" height="180" as="geometry" />
          </mxCell>
        </UserObject>
        <mxCell id="45" value="&lt;div style=&quot;font-size: 1px&quot;&gt;&lt;font style=&quot;font-size:11.64px;font-family:Helvetica;color:#000000;direction:ltr;letter-spacing:0px;line-height:120%;opacity:1&quot;&gt;&lt;b&gt;user_access&lt;/b&gt;&lt;/font&gt;&lt;/div&gt;" style="verticalAlign=middle;align=center;overflow=width;vsdxID=41;fillColor=#ffffff;gradientColor=none;shape=stencil(tVTbDoMgDP0aXgnSib479x8m4iRzYlB3+fvByLYIU8eWvbXlnOb0kBZB1tdFxxEl/aDkgZ9FOdQItohS0dZciUFHCHIEWSUV3ys5tqXNu8IgTXSUJ9PhYnnEMCi52iximCX3ys6CG9HOgsk8MCJfQz0JOniJr0TT2Nmf73+Y7KHpM8FBYFfGD5oDe0cJTllQf48AgAFCCPGSNR6ahepJQ/U4fzU1iMV4k4YY5BNWDPIJSwb56BWDfMKKQW8mnho02T1n73TgHhldsgcK8hs=);strokeColor=#000000;spacingTop=-3;spacingBottom=-3;spacingLeft=-3;spacingRight=-3;points=[];labelBackgroundColor=none;rounded=0;html=1;whiteSpace=wrap;" parent="44" vertex="1">
          <mxGeometry width="336" height="180" as="geometry" />
        </mxCell>
        <mxCell id="46" style="vsdxID=4210000;fillColor=none;gradientColor=none;strokeColor=none;spacingTop=-3;spacingBottom=-3;spacingLeft=-3;spacingRight=-3;points=[];labelBackgroundColor=none;rounded=0;html=1;whiteSpace=wrap;" parent="44" vertex="1">
          <mxGeometry y="30" width="336" height="30" as="geometry" />
        </mxCell>
        <mxCell id="47" value="&lt;div style=&quot;font-size: 1px&quot;&gt;&lt;font style=&quot;font-size:11.64px;font-family:Helvetica;color:#000000;direction:ltr;letter-spacing:0px;line-height:120%;opacity:1&quot;&gt;&lt;b&gt;PK&lt;/b&gt;&lt;/font&gt;&lt;/div&gt;" style="verticalAlign=middle;align=center;overflow=width;vsdxID=43;fillColor=none;gradientColor=none;shape=stencil(nZJZDsMgDERP43+Kj5Cm94gUUqxSiAjpcvuCrGahFVL4m8HPlkcYsJl0NyqQYgre3dST+qABzyAlWa08hagAW8BmcF5dvZttz37sEpnU3T3ShBf3idQhxXvrLgwashvwJKrRr/8LV6M7MIo14UDGLJWK4HuwGLyMZml+luRfPLhqaWg2MIr8DuIT3xC2Hw==);strokeColor=#000000;spacingTop=-3;spacingBottom=-3;spacingLeft=-3;spacingRight=-3;points=[];labelBackgroundColor=none;rounded=0;html=1;whiteSpace=wrap;" parent="46" vertex="1">
          <mxGeometry width="60" height="30" as="geometry" />
        </mxCell>
        <mxCell id="48" value="&lt;div style=&quot;font-size: 1px&quot;&gt;&lt;font style=&quot;font-size:11.64px;font-family:Helvetica;color:#000000;direction:ltr;letter-spacing:0px;line-height:120%;opacity:1&quot;&gt;&lt;u&gt;&lt;b&gt;user_access_id&lt;/b&gt;&lt;/u&gt;&lt;/font&gt;&lt;/div&gt;" style="verticalAlign=middle;align=left;overflow=width;vsdxID=44;fillColor=none;gradientColor=none;shape=stencil(nZJZDsMgDERP43+Kj5Cm94gUUqxSiAjpcvuCrGahFVL4m8HPlkcYsJl0NyqQYgre3dST+qABzyAlWa08hagAW8BmcF5dvZttz37sEpnU3T3ShBf3idQhxXvrLgwashvwJKrRr/8LV6M7MIo14UDGLJWK4HuwGLyMZml+luRfPLhqaWg2MIr8DuIT3xC2Hw==);strokeColor=#000000;spacingTop=-3;spacingBottom=-3;spacingLeft=-3;spacingRight=-3;points=[];labelBackgroundColor=none;rounded=0;html=1;whiteSpace=wrap;" parent="46" vertex="1">
          <mxGeometry x="60" width="160" height="30" as="geometry" />
        </mxCell>
        <mxCell id="49" value="&lt;div style=&quot;font-size: 1px&quot;&gt;&lt;font style=&quot;font-size:11.64px;font-family:Helvetica;color:#000000;direction:ltr;letter-spacing:0px;line-height:120%;opacity:1&quot;&gt;&lt;u&gt;&lt;b&gt;bigint&lt;/b&gt;&lt;/u&gt;&lt;/font&gt;&lt;/div&gt;" style="verticalAlign=middle;align=left;overflow=width;vsdxID=45;fillColor=none;gradientColor=none;shape=stencil(nZJZDsMgDERP43+Kj5Cm94gUUqxSiAjpcvuCrGahFVL4m8HPlkcYsJl0NyqQYgre3dST+qABzyAlWa08hagAW8BmcF5dvZttz37sEpnU3T3ShBf3idQhxXvrLgwashvwJKrRr/8LV6M7MIo14UDGLJWK4HuwGLyMZml+luRfPLhqaWg2MIr8DuIT3xC2Hw==);strokeColor=#000000;spacingTop=-3;spacingBottom=-3;spacingLeft=-3;spacingRight=-3;points=[];labelBackgroundColor=none;rounded=0;html=1;whiteSpace=wrap;" parent="46" vertex="1">
          <mxGeometry x="220" width="116" height="30" as="geometry" />
        </mxCell>
        <mxCell id="50" style="vsdxID=4610000;fillColor=none;gradientColor=none;strokeColor=none;spacingTop=-3;spacingBottom=-3;spacingLeft=-3;spacingRight=-3;points=[];labelBackgroundColor=none;rounded=0;html=1;whiteSpace=wrap;" parent="44" vertex="1">
          <mxGeometry y="60" width="336" height="30" as="geometry" />
        </mxCell>
        <mxCell id="51" value="&lt;div style=&quot;font-size: 1px&quot;&gt;&lt;font style=&quot;font-size:11.64px;font-family:Helvetica;color:#000000;direction:ltr;letter-spacing:0px;line-height:120%;opacity:1&quot;&gt;FK&lt;/font&gt;&lt;/div&gt;" style="verticalAlign=middle;align=center;overflow=width;vsdxID=47;fillColor=none;gradientColor=none;shape=stencil(nZJZDsMgDERP43+Kj5Cm94gUUqxSiAjpcvuCrGahFVL4m8HPlkcYsJl0NyqQYgre3dST+qABzyAlWa08hagAW8BmcF5dvZttz37sEpnU3T3ShBf3idQhxXvrLgwashvwJKrRr/8LV6M7MIo14UDGLJWK4HuwGLyMZml+luRfPLhqaWg2MIr8DuIT3xC2Hw==);strokeColor=#000000;spacingTop=-3;spacingBottom=-3;spacingLeft=-3;spacingRight=-3;points=[];labelBackgroundColor=none;rounded=0;html=1;whiteSpace=wrap;" parent="50" vertex="1">
          <mxGeometry width="60" height="30" as="geometry" />
        </mxCell>
        <mxCell id="52" value="&lt;div style=&quot;font-size: 1px&quot;&gt;&lt;font style=&quot;font-size:11.64px;font-family:Helvetica;color:#000000;direction:ltr;letter-spacing:0px;line-height:120%;opacity:1&quot;&gt;work_dir_id&lt;/font&gt;&lt;/div&gt;" style="verticalAlign=middle;align=left;overflow=width;vsdxID=48;fillColor=none;gradientColor=none;shape=stencil(nZJZDsMgDERP43+Kj5Cm94gUUqxSiAjpcvuCrGahFVL4m8HPlkcYsJl0NyqQYgre3dST+qABzyAlWa08hagAW8BmcF5dvZttz37sEpnU3T3ShBf3idQhxXvrLgwashvwJKrRr/8LV6M7MIo14UDGLJWK4HuwGLyMZml+luRfPLhqaWg2MIr8DuIT3xC2Hw==);strokeColor=#000000;spacingTop=-3;spacingBottom=-3;spacingLeft=-3;spacingRight=-3;points=[];labelBackgroundColor=none;rounded=0;html=1;whiteSpace=wrap;" parent="50" vertex="1">
          <mxGeometry x="60" width="160" height="30" as="geometry" />
        </mxCell>
        <mxCell id="53" value="&lt;div style=&quot;font-size: 1px&quot;&gt;&lt;font style=&quot;font-size:11.64px;font-family:Helvetica;color:#000000;direction:ltr;letter-spacing:0px;line-height:120%;opacity:1&quot;&gt;bigint&lt;/font&gt;&lt;/div&gt;" style="verticalAlign=middle;align=left;overflow=width;vsdxID=49;fillColor=none;gradientColor=none;shape=stencil(nZJZDsMgDERP43+Kj5Cm94gUUqxSiAjpcvuCrGahFVL4m8HPlkcYsJl0NyqQYgre3dST+qABzyAlWa08hagAW8BmcF5dvZttz37sEpnU3T3ShBf3idQhxXvrLgwashvwJKrRr/8LV6M7MIo14UDGLJWK4HuwGLyMZml+luRfPLhqaWg2MIr8DuIT3xC2Hw==);strokeColor=#000000;spacingTop=-3;spacingBottom=-3;spacingLeft=-3;spacingRight=-3;points=[];labelBackgroundColor=none;rounded=0;html=1;whiteSpace=wrap;" parent="50" vertex="1">
          <mxGeometry x="220" width="116" height="30" as="geometry" />
        </mxCell>
        <mxCell id="54" style="vsdxID=5010000;fillColor=none;gradientColor=none;strokeColor=none;spacingTop=-3;spacingBottom=-3;spacingLeft=-3;spacingRight=-3;points=[];labelBackgroundColor=none;rounded=0;html=1;whiteSpace=wrap;" parent="44" vertex="1">
          <mxGeometry y="90" width="336" height="30" as="geometry" />
        </mxCell>
        <mxCell id="55" style="vsdxID=51;fillColor=none;gradientColor=none;shape=stencil(nZJZDsMgDERP43+Kj5Cm94gUUqxSiAjpcvuCrGahFVL4m8HPlkcYsJl0NyqQYgre3dST+qABzyAlWa08hagAW8BmcF5dvZttz37sEpnU3T3ShBf3idQhxXvrLgwashvwJKrRr/8LV6M7MIo14UDGLJWK4HuwGLyMZml+luRfPLhqaWg2MIr8DuIT3xC2Hw==);strokeColor=#000000;spacingTop=-3;spacingBottom=-3;spacingLeft=-3;spacingRight=-3;points=[];labelBackgroundColor=none;rounded=0;html=1;whiteSpace=wrap;" parent="54" vertex="1">
          <mxGeometry width="60" height="30" as="geometry" />
        </mxCell>
        <mxCell id="56" value="&lt;div style=&quot;font-size: 1px&quot;&gt;&lt;font style=&quot;font-size:11.64px;font-family:Helvetica;color:#000000;direction:ltr;letter-spacing:0px;line-height:120%;opacity:1&quot;&gt;username&lt;/font&gt;&lt;/div&gt;" style="verticalAlign=middle;align=left;overflow=width;vsdxID=52;fillColor=none;gradientColor=none;shape=stencil(nZJZDsMgDERP43+Kj5Cm94gUUqxSiAjpcvuCrGahFVL4m8HPlkcYsJl0NyqQYgre3dST+qABzyAlWa08hagAW8BmcF5dvZttz37sEpnU3T3ShBf3idQhxXvrLgwashvwJKrRr/8LV6M7MIo14UDGLJWK4HuwGLyMZml+luRfPLhqaWg2MIr8DuIT3xC2Hw==);strokeColor=#000000;spacingTop=-3;spacingBottom=-3;spacingLeft=-3;spacingRight=-3;points=[];labelBackgroundColor=none;rounded=0;html=1;whiteSpace=wrap;" parent="54" vertex="1">
          <mxGeometry x="60" width="160" height="30" as="geometry" />
        </mxCell>
        <mxCell id="57" value="&lt;div style=&quot;font-size: 1px&quot;&gt;&lt;font style=&quot;font-size:11.64px;font-family:Helvetica;color:#000000;direction:ltr;letter-spacing:0px;line-height:120%;opacity:1&quot;&gt;text&lt;/font&gt;&lt;/div&gt;" style="verticalAlign=middle;align=left;overflow=width;vsdxID=53;fillColor=none;gradientColor=none;shape=stencil(nZJZDsMgDERP43+Kj5Cm94gUUqxSiAjpcvuCrGahFVL4m8HPlkcYsJl0NyqQYgre3dST+qABzyAlWa08hagAW8BmcF5dvZttz37sEpnU3T3ShBf3idQhxXvrLgwashvwJKrRr/8LV6M7MIo14UDGLJWK4HuwGLyMZml+luRfPLhqaWg2MIr8DuIT3xC2Hw==);strokeColor=#000000;spacingTop=-3;spacingBottom=-3;spacingLeft=-3;spacingRight=-3;points=[];labelBackgroundColor=none;rounded=0;html=1;whiteSpace=wrap;" parent="54" vertex="1">
          <mxGeometry x="220" width="116" height="30" as="geometry" />
        </mxCell>
        <mxCell id="58" style="vsdxID=5410000;fillColor=none;gradientColor=none;strokeColor=none;spacingTop=-3;spacingBottom=-3;spacingLeft=-3;spacingRight=-3;points=[];labelBackgroundColor=none;rounded=0;html=1;whiteSpace=wrap;" parent="44" vertex="1">
          <mxGeometry y="120" width="336" height="30" as="geometry" />
        </mxCell>
        <mxCell id="59" style="vsdxID=55;fillColor=none;gradientColor=none;shape=stencil(nZJZDsMgDERP43+Kj5Cm94gUUqxSiAjpcvuCrGahFVL4m8HPlkcYsJl0NyqQYgre3dST+qABzyAlWa08hagAW8BmcF5dvZttz37sEpnU3T3ShBf3idQhxXvrLgwashvwJKrRr/8LV6M7MIo14UDGLJWK4HuwGLyMZml+luRfPLhqaWg2MIr8DuIT3xC2Hw==);strokeColor=#000000;spacingTop=-3;spacingBottom=-3;spacingLeft=-3;spacingRight=-3;points=[];labelBackgroundColor=none;rounded=0;html=1;whiteSpace=wrap;" parent="58" vertex="1">
          <mxGeometry width="60" height="30" as="geometry" />
        </mxCell>
        <mxCell id="60" value="&lt;div style=&quot;font-size: 1px&quot;&gt;&lt;font style=&quot;font-size:11.64px;font-family:Helvetica;color:#000000;direction:ltr;letter-spacing:0px;line-height:120%;opacity:1&quot;&gt;access_token&lt;/font&gt;&lt;/div&gt;" style="verticalAlign=middle;align=left;overflow=width;vsdxID=56;fillColor=none;gradientColor=none;shape=stencil(nZJZDsMgDERP43+Kj5Cm94gUUqxSiAjpcvuCrGahFVL4m8HPlkcYsJl0NyqQYgre3dST+qABzyAlWa08hagAW8BmcF5dvZttz37sEpnU3T3ShBf3idQhxXvrLgwashvwJKrRr/8LV6M7MIo14UDGLJWK4HuwGLyMZml+luRfPLhqaWg2MIr8DuIT3xC2Hw==);strokeColor=#000000;spacingTop=-3;spacingBottom=-3;spacingLeft=-3;spacingRight=-3;points=[];labelBackgroundColor=none;rounded=0;html=1;whiteSpace=wrap;" parent="58" vertex="1">
          <mxGeometry x="60" width="160" height="30" as="geometry" />
        </mxCell>
        <mxCell id="61" value="&lt;div style=&quot;font-size: 1px&quot;&gt;&lt;font style=&quot;font-size:11.64px;font-family:Helvetica;color:#000000;direction:ltr;letter-spacing:0px;line-height:120%;opacity:1&quot;&gt;text&lt;/font&gt;&lt;/div&gt;" style="verticalAlign=middle;align=left;overflow=width;vsdxID=57;fillColor=none;gradientColor=none;shape=stencil(nZJZDsMgDERP43+Kj5Cm94gUUqxSiAjpcvuCrGahFVL4m8HPlkcYsJl0NyqQYgre3dST+qABzyAlWa08hagAW8BmcF5dvZttz37sEpnU3T3ShBf3idQhxXvrLgwashvwJKrRr/8LV6M7MIo14UDGLJWK4HuwGLyMZml+luRfPLhqaWg2MIr8DuIT3xC2Hw==);strokeColor=#000000;spacingTop=-3;spacingBottom=-3;spacingLeft=-3;spacingRight=-3;points=[];labelBackgroundColor=none;rounded=0;html=1;whiteSpace=wrap;" parent="58" vertex="1">
          <mxGeometry x="220" width="116" height="30" as="geometry" />
        </mxCell>
        <mxCell id="62" style="vsdxID=5810000;fillColor=none;gradientColor=none;strokeColor=none;spacingTop=-3;spacingBottom=-3;spacingLeft=-3;spacingRight=-3;points=[];labelBackgroundColor=none;rounded=0;html=1;whiteSpace=wrap;" parent="44" vertex="1">
          <mxGeometry y="150" width="336" height="30" as="geometry" />
        </mxCell>
        <mxCell id="63" style="vsdxID=59;fillColor=none;gradientColor=none;shape=stencil(nZJZDsMgDERP43+Kj5Cm94gUUqxSiAjpcvuCrGahFVL4m8HPlkcYsJl0NyqQYgre3dST+qABzyAlWa08hagAW8BmcF5dvZttz37sEpnU3T3ShBf3idQhxXvrLgwashvwJKrRr/8LV6M7MIo14UDGLJWK4HuwGLyMZml+luRfPLhqaWg2MIr8DuIT3xC2Hw==);strokeColor=#000000;spacingTop=-3;spacingBottom=-3;spacingLeft=-3;spacingRight=-3;points=[];labelBackgroundColor=none;rounded=0;html=1;whiteSpace=wrap;" parent="62" vertex="1">
          <mxGeometry width="60" height="30" as="geometry" />
        </mxCell>
        <mxCell id="64" value="&lt;div style=&quot;font-size: 1px&quot;&gt;&lt;font style=&quot;font-size:11.64px;font-family:Helvetica;color:#000000;direction:ltr;letter-spacing:0px;line-height:120%;opacity:1&quot;&gt;creation_datetime&lt;/font&gt;&lt;/div&gt;" style="verticalAlign=middle;align=left;overflow=width;vsdxID=60;fillColor=none;gradientColor=none;shape=stencil(nZJZDsMgDERP43+Kj5Cm94gUUqxSiAjpcvuCrGahFVL4m8HPlkcYsJl0NyqQYgre3dST+qABzyAlWa08hagAW8BmcF5dvZttz37sEpnU3T3ShBf3idQhxXvrLgwashvwJKrRr/8LV6M7MIo14UDGLJWK4HuwGLyMZml+luRfPLhqaWg2MIr8DuIT3xC2Hw==);strokeColor=#000000;spacingTop=-3;spacingBottom=-3;spacingLeft=-3;spacingRight=-3;points=[];labelBackgroundColor=none;rounded=0;html=1;whiteSpace=wrap;" parent="62" vertex="1">
          <mxGeometry x="60" width="160" height="30" as="geometry" />
        </mxCell>
        <mxCell id="65" value="&lt;div style=&quot;font-size: 1px&quot;&gt;&lt;font style=&quot;font-size:11.64px;font-family:Helvetica;color:#000000;direction:ltr;letter-spacing:0px;line-height:120%;opacity:1&quot;&gt;datetime&lt;/font&gt;&lt;/div&gt;" style="verticalAlign=middle;align=left;overflow=width;vsdxID=61;fillColor=none;gradientColor=none;shape=stencil(nZJZDsMgDERP43+Kj5Cm94gUUqxSiAjpcvuCrGahFVL4m8HPlkcYsJl0NyqQYgre3dST+qABzyAlWa08hagAW8BmcF5dvZttz37sEpnU3T3ShBf3idQhxXvrLgwashvwJKrRr/8LV6M7MIo14UDGLJWK4HuwGLyMZml+luRfPLhqaWg2MIr8DuIT3xC2Hw==);strokeColor=#000000;spacingTop=-3;spacingBottom=-3;spacingLeft=-3;spacingRight=-3;points=[];labelBackgroundColor=none;rounded=0;html=1;whiteSpace=wrap;" parent="62" vertex="1">
          <mxGeometry x="220" width="116" height="30" as="geometry" />
        </mxCell>
        <UserObject label="" tags="Background" id="66">
          <mxCell style="vsdxID=6410000;fillColor=none;gradientColor=none;strokeColor=none;spacingTop=-3;spacingBottom=-3;spacingLeft=-3;spacingRight=-3;points=[];labelBackgroundColor=none;rounded=0;html=1;whiteSpace=wrap;" parent="1" vertex="1">
            <mxGeometry x="450" y="340" width="380" height="240" as="geometry" />
          </mxCell>
        </UserObject>
        <mxCell id="67" value="&lt;div style=&quot;font-size: 1px&quot;&gt;&lt;font style=&quot;font-size:11.64px;font-family:Helvetica;color:#000000;direction:ltr;letter-spacing:0px;line-height:120%;opacity:1&quot;&gt;&lt;b&gt;file&lt;/b&gt;&lt;/font&gt;&lt;/div&gt;" style="verticalAlign=middle;align=center;overflow=width;vsdxID=64;fillColor=#ffffff;gradientColor=none;shape=stencil(rZTfDoIgFIefhluHMMOuzd7DTUyWiUP79/ZBrJqcZB3X3QE+zn58Y4fwYmyrQRJGx8noo7yqemoJ3xHGVN9KoyZbEV4SXjTayIPR577266FypKtO+uI63Pw96m4weverlCXZc2Pv2U71iyxdBlO6Gg0T2OITvVFd51/+Pv//u16JfouLgoMU6xPjOqdZIraY7oBnKJoLXPcs5hDQG2R2gaJzZPbgA8zFZyLJMeIhHxMP6bh4yMfEQzouHvIx8ZCOi/9ici5+NieCGWGLcBzaLT9KefkA);strokeColor=#000000;spacingTop=-3;spacingBottom=-3;spacingLeft=-3;spacingRight=-3;points=[];labelBackgroundColor=none;rounded=0;html=1;whiteSpace=wrap;" parent="66" vertex="1">
          <mxGeometry width="380" height="240" as="geometry" />
        </mxCell>
        <mxCell id="68" style="vsdxID=6510000;fillColor=none;gradientColor=none;strokeColor=none;spacingTop=-3;spacingBottom=-3;spacingLeft=-3;spacingRight=-3;points=[];labelBackgroundColor=none;rounded=0;html=1;whiteSpace=wrap;" parent="66" vertex="1">
          <mxGeometry y="30" width="380" height="30" as="geometry" />
        </mxCell>
        <mxCell id="69" value="&lt;div style=&quot;font-size: 1px&quot;&gt;&lt;font style=&quot;font-size:11.64px;font-family:Helvetica;color:#000000;direction:ltr;letter-spacing:0px;line-height:120%;opacity:1&quot;&gt;&lt;b&gt;PK&lt;/b&gt;&lt;/font&gt;&lt;/div&gt;" style="verticalAlign=middle;align=center;overflow=width;vsdxID=66;fillColor=none;gradientColor=none;shape=stencil(nZJZDsMgDERP43+Kj5Cm94gUUqxSiAjpcvuCrGahFVL4m8HPlkcYsJl0NyqQYgre3dST+qABzyAlWa08hagAW8BmcF5dvZttz37sEpnU3T3ShBf3idQhxXvrLgwashvwJKrRr/8LV6M7MIo14UDGLJWK4HuwGLyMZml+luRfPLhqaWg2MIr8DuIT3xC2Hw==);strokeColor=#000000;spacingTop=-3;spacingBottom=-3;spacingLeft=-3;spacingRight=-3;points=[];labelBackgroundColor=none;rounded=0;html=1;whiteSpace=wrap;" parent="68" vertex="1">
          <mxGeometry width="60" height="30" as="geometry" />
        </mxCell>
        <mxCell id="70" value="&lt;div style=&quot;font-size: 1px&quot;&gt;&lt;font style=&quot;font-size:11.64px;font-family:Helvetica;color:#000000;direction:ltr;letter-spacing:0px;line-height:120%;opacity:1&quot;&gt;&lt;u&gt;&lt;b&gt;file_id&lt;/b&gt;&lt;/u&gt;&lt;/font&gt;&lt;/div&gt;" style="verticalAlign=middle;align=left;overflow=width;vsdxID=67;fillColor=none;gradientColor=none;shape=stencil(nZJZDsMgDERP43+Kj5Cm94gUUqxSiAjpcvuCrGahFVL4m8HPlkcYsJl0NyqQYgre3dST+qABzyAlWa08hagAW8BmcF5dvZttz37sEpnU3T3ShBf3idQhxXvrLgwashvwJKrRr/8LV6M7MIo14UDGLJWK4HuwGLyMZml+luRfPLhqaWg2MIr8DuIT3xC2Hw==);strokeColor=#000000;spacingTop=-3;spacingBottom=-3;spacingLeft=-3;spacingRight=-3;points=[];labelBackgroundColor=none;rounded=0;html=1;whiteSpace=wrap;" parent="68" vertex="1">
          <mxGeometry x="60" width="160" height="30" as="geometry" />
        </mxCell>
        <mxCell id="71" value="&lt;div style=&quot;font-size: 1px&quot;&gt;&lt;font style=&quot;font-size:11.64px;font-family:Helvetica;color:#000000;direction:ltr;letter-spacing:0px;line-height:120%;opacity:1&quot;&gt;&lt;u&gt;&lt;b&gt;bigint&lt;/b&gt;&lt;/u&gt;&lt;/font&gt;&lt;/div&gt;" style="verticalAlign=middle;align=left;overflow=width;vsdxID=68;fillColor=none;gradientColor=none;shape=stencil(nZJZDsMgDERP43+Kj5Cm94gUUqxSiAjpcvuCrGahFVL4m8HPlkcYsJl0NyqQYgre3dST+qABzyAlWa08hagAW8BmcF5dvZttz37sEpnU3T3ShBf3idQhxXvrLgwashvwJKrRr/8LV6M7MIo14UDGLJWK4HuwGLyMZml+luRfPLhqaWg2MIr8DuIT3xC2Hw==);strokeColor=#000000;spacingTop=-3;spacingBottom=-3;spacingLeft=-3;spacingRight=-3;points=[];labelBackgroundColor=none;rounded=0;html=1;whiteSpace=wrap;" parent="68" vertex="1">
          <mxGeometry x="220" width="160" height="30" as="geometry" />
        </mxCell>
        <mxCell id="72" style="vsdxID=6910000;fillColor=none;gradientColor=none;strokeColor=none;spacingTop=-3;spacingBottom=-3;spacingLeft=-3;spacingRight=-3;points=[];labelBackgroundColor=none;rounded=0;html=1;whiteSpace=wrap;" parent="66" vertex="1">
          <mxGeometry y="60" width="380" height="30" as="geometry" />
        </mxCell>
        <mxCell id="73" style="vsdxID=70;fillColor=none;gradientColor=none;shape=stencil(nZJZDsMgDERP43+Kj5Cm94gUUqxSiAjpcvuCrGahFVL4m8HPlkcYsJl0NyqQYgre3dST+qABzyAlWa08hagAW8BmcF5dvZttz37sEpnU3T3ShBf3idQhxXvrLgwashvwJKrRr/8LV6M7MIo14UDGLJWK4HuwGLyMZml+luRfPLhqaWg2MIr8DuIT3xC2Hw==);strokeColor=#000000;spacingTop=-3;spacingBottom=-3;spacingLeft=-3;spacingRight=-3;points=[];labelBackgroundColor=none;rounded=0;html=1;whiteSpace=wrap;" parent="72" vertex="1">
          <mxGeometry width="60" height="30" as="geometry" />
        </mxCell>
        <mxCell id="74" value="&lt;div style=&quot;font-size: 1px&quot;&gt;&lt;font style=&quot;font-size:11.64px;font-family:Helvetica;color:#000000;direction:ltr;letter-spacing:0px;line-height:120%;opacity:1&quot;&gt;asset_guid&lt;/font&gt;&lt;/div&gt;" style="verticalAlign=middle;align=left;overflow=width;vsdxID=71;fillColor=none;gradientColor=none;shape=stencil(nZJZDsMgDERP43+Kj5Cm94gUUqxSiAjpcvuCrGahFVL4m8HPlkcYsJl0NyqQYgre3dST+qABzyAlWa08hagAW8BmcF5dvZttz37sEpnU3T3ShBf3idQhxXvrLgwashvwJKrRr/8LV6M7MIo14UDGLJWK4HuwGLyMZml+luRfPLhqaWg2MIr8DuIT3xC2Hw==);strokeColor=#000000;spacingTop=-3;spacingBottom=-3;spacingLeft=-3;spacingRight=-3;points=[];labelBackgroundColor=none;rounded=0;html=1;whiteSpace=wrap;" parent="72" vertex="1">
          <mxGeometry x="60" width="160" height="30" as="geometry" />
        </mxCell>
        <mxCell id="75" value="&lt;div style=&quot;font-size: 1px&quot;&gt;&lt;font style=&quot;font-size:11.64px;font-family:Helvetica;color:#000000;direction:ltr;letter-spacing:0px;line-height:120%;opacity:1&quot;&gt;text&lt;/font&gt;&lt;/div&gt;" style="verticalAlign=middle;align=left;overflow=width;vsdxID=72;fillColor=none;gradientColor=none;shape=stencil(nZJZDsMgDERP43+Kj5Cm94gUUqxSiAjpcvuCrGahFVL4m8HPlkcYsJl0NyqQYgre3dST+qABzyAlWa08hagAW8BmcF5dvZttz37sEpnU3T3ShBf3idQhxXvrLgwashvwJKrRr/8LV6M7MIo14UDGLJWK4HuwGLyMZml+luRfPLhqaWg2MIr8DuIT3xC2Hw==);strokeColor=#000000;spacingTop=-3;spacingBottom=-3;spacingLeft=-3;spacingRight=-3;points=[];labelBackgroundColor=none;rounded=0;html=1;whiteSpace=wrap;" parent="72" vertex="1">
          <mxGeometry x="220" width="160" height="30" as="geometry" />
        </mxCell>
        <mxCell id="76" style="vsdxID=7310000;fillColor=none;gradientColor=none;strokeColor=none;spacingTop=-3;spacingBottom=-3;spacingLeft=-3;spacingRight=-3;points=[];labelBackgroundColor=none;rounded=0;html=1;whiteSpace=wrap;" parent="66" vertex="1">
          <mxGeometry y="90" width="380" height="30" as="geometry" />
        </mxCell>
        <mxCell id="77" style="vsdxID=74;fillColor=none;gradientColor=none;shape=stencil(nZJZDsMgDERP43+Kj5Cm94gUUqxSiAjpcvuCrGahFVL4m8HPlkcYsJl0NyqQYgre3dST+qABzyAlWa08hagAW8BmcF5dvZttz37sEpnU3T3ShBf3idQhxXvrLgwashvwJKrRr/8LV6M7MIo14UDGLJWK4HuwGLyMZml+luRfPLhqaWg2MIr8DuIT3xC2Hw==);strokeColor=#000000;spacingTop=-3;spacingBottom=-3;spacingLeft=-3;spacingRight=-3;points=[];labelBackgroundColor=none;rounded=0;html=1;whiteSpace=wrap;" parent="76" vertex="1">
          <mxGeometry width="60" height="30" as="geometry" />
        </mxCell>
        <mxCell id="78" value="&lt;div style=&quot;font-size: 1px&quot;&gt;&lt;font style=&quot;font-size:11.64px;font-family:Helvetica;color:#000000;direction:ltr;letter-spacing:0px;line-height:120%;opacity:1&quot;&gt;size_bytes&lt;/font&gt;&lt;/div&gt;" style="verticalAlign=middle;align=left;overflow=width;vsdxID=75;fillColor=none;gradientColor=none;shape=stencil(nZJZDsMgDERP43+Kj5Cm94gUUqxSiAjpcvuCrGahFVL4m8HPlkcYsJl0NyqQYgre3dST+qABzyAlWa08hagAW8BmcF5dvZttz37sEpnU3T3ShBf3idQhxXvrLgwashvwJKrRr/8LV6M7MIo14UDGLJWK4HuwGLyMZml+luRfPLhqaWg2MIr8DuIT3xC2Hw==);strokeColor=#000000;spacingTop=-3;spacingBottom=-3;spacingLeft=-3;spacingRight=-3;points=[];labelBackgroundColor=none;rounded=0;html=1;whiteSpace=wrap;" parent="76" vertex="1">
          <mxGeometry x="60" width="160" height="30" as="geometry" />
        </mxCell>
        <mxCell id="79" value="&lt;div style=&quot;font-size: 1px&quot;&gt;&lt;font style=&quot;font-size:11.64px;font-family:Helvetica;color:#000000;direction:ltr;letter-spacing:0px;line-height:120%;opacity:1&quot;&gt;bigint&lt;/font&gt;&lt;/div&gt;" style="verticalAlign=middle;align=left;overflow=width;vsdxID=76;fillColor=none;gradientColor=none;shape=stencil(nZJZDsMgDERP43+Kj5Cm94gUUqxSiAjpcvuCrGahFVL4m8HPlkcYsJl0NyqQYgre3dST+qABzyAlWa08hagAW8BmcF5dvZttz37sEpnU3T3ShBf3idQhxXvrLgwashvwJKrRr/8LV6M7MIo14UDGLJWK4HuwGLyMZml+luRfPLhqaWg2MIr8DuIT3xC2Hw==);strokeColor=#000000;spacingTop=-3;spacingBottom=-3;spacingLeft=-3;spacingRight=-3;points=[];labelBackgroundColor=none;rounded=0;html=1;whiteSpace=wrap;" parent="76" vertex="1">
          <mxGeometry x="220" width="160" height="30" as="geometry" />
        </mxCell>
        <mxCell id="80" style="vsdxID=7710000;fillColor=none;gradientColor=none;strokeColor=none;spacingTop=-3;spacingBottom=-3;spacingLeft=-3;spacingRight=-3;points=[];labelBackgroundColor=none;rounded=0;html=1;whiteSpace=wrap;" parent="66" vertex="1">
          <mxGeometry y="120" width="380" height="30" as="geometry" />
        </mxCell>
        <mxCell id="81" style="vsdxID=78;fillColor=none;gradientColor=none;shape=stencil(nZJZDsMgDERP43+Kj5Cm94gUUqxSiAjpcvuCrGahFVL4m8HPlkcYsJl0NyqQYgre3dST+qABzyAlWa08hagAW8BmcF5dvZttz37sEpnU3T3ShBf3idQhxXvrLgwashvwJKrRr/8LV6M7MIo14UDGLJWK4HuwGLyMZml+luRfPLhqaWg2MIr8DuIT3xC2Hw==);strokeColor=#000000;spacingTop=-3;spacingBottom=-3;spacingLeft=-3;spacingRight=-3;points=[];labelBackgroundColor=none;rounded=0;html=1;whiteSpace=wrap;" parent="80" vertex="1">
          <mxGeometry width="60" height="30" as="geometry" />
        </mxCell>
        <mxCell id="82" value="&lt;div style=&quot;font-size: 1px&quot;&gt;&lt;font style=&quot;font-size:11.64px;font-family:Helvetica;color:#000000;direction:ltr;letter-spacing:0px;line-height:120%;opacity:1&quot;&gt;path&lt;/font&gt;&lt;font style=&quot;font-size:11.64px;font-family:Helvetica;color:#000000;direction:ltr;letter-spacing:0px;line-height:120%;opacity:1&quot;&gt;&#x9;&lt;/font&gt;&lt;/div&gt;" style="verticalAlign=middle;align=left;overflow=width;vsdxID=79;fillColor=none;gradientColor=none;shape=stencil(nZJZDsMgDERP43+Kj5Cm94gUUqxSiAjpcvuCrGahFVL4m8HPlkcYsJl0NyqQYgre3dST+qABzyAlWa08hagAW8BmcF5dvZttz37sEpnU3T3ShBf3idQhxXvrLgwashvwJKrRr/8LV6M7MIo14UDGLJWK4HuwGLyMZml+luRfPLhqaWg2MIr8DuIT3xC2Hw==);strokeColor=#000000;spacingTop=-3;spacingBottom=-3;spacingLeft=-3;spacingRight=-3;points=[];labelBackgroundColor=none;rounded=0;html=1;whiteSpace=wrap;" parent="80" vertex="1">
          <mxGeometry x="60" width="160" height="30" as="geometry" />
        </mxCell>
        <mxCell id="83" value="&lt;div style=&quot;font-size: 1px&quot;&gt;&lt;font style=&quot;font-size:11.64px;font-family:Helvetica;color:#000000;direction:ltr;letter-spacing:0px;line-height:120%;opacity:1&quot;&gt;text&lt;/font&gt;&lt;/div&gt;" style="verticalAlign=middle;align=left;overflow=width;vsdxID=80;fillColor=none;gradientColor=none;shape=stencil(nZJZDsMgDERP43+Kj5Cm94gUUqxSiAjpcvuCrGahFVL4m8HPlkcYsJl0NyqQYgre3dST+qABzyAlWa08hagAW8BmcF5dvZttz37sEpnU3T3ShBf3idQhxXvrLgwashvwJKrRr/8LV6M7MIo14UDGLJWK4HuwGLyMZml+luRfPLhqaWg2MIr8DuIT3xC2Hw==);strokeColor=#000000;spacingTop=-3;spacingBottom=-3;spacingLeft=-3;spacingRight=-3;points=[];labelBackgroundColor=none;rounded=0;html=1;whiteSpace=wrap;" parent="80" vertex="1">
          <mxGeometry x="220" width="160" height="30" as="geometry" />
        </mxCell>
        <mxCell id="84" style="vsdxID=8110000;fillColor=none;gradientColor=none;strokeColor=none;spacingTop=-3;spacingBottom=-3;spacingLeft=-3;spacingRight=-3;points=[];labelBackgroundColor=none;rounded=0;html=1;whiteSpace=wrap;" parent="66" vertex="1">
          <mxGeometry y="150" width="380" height="30" as="geometry" />
        </mxCell>
        <mxCell id="85" style="vsdxID=82;fillColor=none;gradientColor=none;shape=stencil(nZJZDsMgDERP43+Kj5Cm94gUUqxSiAjpcvuCrGahFVL4m8HPlkcYsJl0NyqQYgre3dST+qABzyAlWa08hagAW8BmcF5dvZttz37sEpnU3T3ShBf3idQhxXvrLgwashvwJKrRr/8LV6M7MIo14UDGLJWK4HuwGLyMZml+luRfPLhqaWg2MIr8DuIT3xC2Hw==);strokeColor=#000000;spacingTop=-3;spacingBottom=-3;spacingLeft=-3;spacingRight=-3;points=[];labelBackgroundColor=none;rounded=0;html=1;whiteSpace=wrap;" parent="84" vertex="1">
          <mxGeometry width="60" height="30" as="geometry" />
        </mxCell>
        <mxCell id="86" value="&lt;div style=&quot;font-size: 1px&quot;&gt;&lt;font style=&quot;font-size:11.64px;font-family:Helvetica;color:#000000;direction:ltr;letter-spacing:0px;line-height:120%;opacity:1&quot;&gt;crc&lt;/font&gt;&lt;/div&gt;" style="verticalAlign=middle;align=left;overflow=width;vsdxID=83;fillColor=none;gradientColor=none;shape=stencil(nZJZDsMgDERP43+Kj5Cm94gUUqxSiAjpcvuCrGahFVL4m8HPlkcYsJl0NyqQYgre3dST+qABzyAlWa08hagAW8BmcF5dvZttz37sEpnU3T3ShBf3idQhxXvrLgwashvwJKrRr/8LV6M7MIo14UDGLJWK4HuwGLyMZml+luRfPLhqaWg2MIr8DuIT3xC2Hw==);strokeColor=#000000;spacingTop=-3;spacingBottom=-3;spacingLeft=-3;spacingRight=-3;points=[];labelBackgroundColor=none;rounded=0;html=1;whiteSpace=wrap;" parent="84" vertex="1">
          <mxGeometry x="60" width="160" height="30" as="geometry" />
        </mxCell>
        <mxCell id="87" value="&lt;div style=&quot;font-size: 1px&quot;&gt;&lt;font style=&quot;font-size:11.64px;font-family:Helvetica;color:#000000;direction:ltr;letter-spacing:0px;line-height:120%;opacity:1&quot;&gt;int&lt;/font&gt;&lt;/div&gt;" style="verticalAlign=middle;align=left;overflow=width;vsdxID=84;fillColor=none;gradientColor=none;shape=stencil(nZJZDsMgDERP43+Kj5Cm94gUUqxSiAjpcvuCrGahFVL4m8HPlkcYsJl0NyqQYgre3dST+qABzyAlWa08hagAW8BmcF5dvZttz37sEpnU3T3ShBf3idQhxXvrLgwashvwJKrRr/8LV6M7MIo14UDGLJWK4HuwGLyMZml+luRfPLhqaWg2MIr8DuIT3xC2Hw==);strokeColor=#000000;spacingTop=-3;spacingBottom=-3;spacingLeft=-3;spacingRight=-3;points=[];labelBackgroundColor=none;rounded=0;html=1;whiteSpace=wrap;" parent="84" vertex="1">
          <mxGeometry x="220" width="160" height="30" as="geometry" />
        </mxCell>
        <mxCell id="88" style="vsdxID=8510000;fillColor=none;gradientColor=none;strokeColor=none;spacingTop=-3;spacingBottom=-3;spacingLeft=-3;spacingRight=-3;points=[];labelBackgroundColor=none;rounded=0;html=1;whiteSpace=wrap;" parent="66" vertex="1">
          <mxGeometry y="180" width="380" height="30" as="geometry" />
        </mxCell>
        <mxCell id="89" style="vsdxID=86;fillColor=none;gradientColor=none;shape=stencil(nZJZDsMgDERP43+Kj5Cm94gUUqxSiAjpcvuCrGahFVL4m8HPlkcYsJl0NyqQYgre3dST+qABzyAlWa08hagAW8BmcF5dvZttz37sEpnU3T3ShBf3idQhxXvrLgwashvwJKrRr/8LV6M7MIo14UDGLJWK4HuwGLyMZml+luRfPLhqaWg2MIr8DuIT3xC2Hw==);strokeColor=#000000;spacingTop=-3;spacingBottom=-3;spacingLeft=-3;spacingRight=-3;points=[];labelBackgroundColor=none;rounded=0;html=1;whiteSpace=wrap;" parent="88" vertex="1">
          <mxGeometry width="60" height="30" as="geometry" />
        </mxCell>
        <mxCell id="90" value="&lt;div style=&quot;font-size: 1px&quot;&gt;&lt;font style=&quot;font-size:11.64px;font-family:Helvetica;color:#000000;direction:ltr;letter-spacing:0px;line-height:120%;opacity:1&quot;&gt;delete_after_sync&lt;/font&gt;&lt;font style=&quot;font-size:11.64px;font-family:Helvetica;color:#000000;direction:ltr;letter-spacing:0px;line-height:120%;opacity:1&quot;&gt;&#x9;&lt;/font&gt;&lt;/div&gt;" style="verticalAlign=middle;align=left;overflow=width;vsdxID=87;fillColor=none;gradientColor=none;shape=stencil(nZJZDsMgDERP43+Kj5Cm94gUUqxSiAjpcvuCrGahFVL4m8HPlkcYsJl0NyqQYgre3dST+qABzyAlWa08hagAW8BmcF5dvZttz37sEpnU3T3ShBf3idQhxXvrLgwashvwJKrRr/8LV6M7MIo14UDGLJWK4HuwGLyMZml+luRfPLhqaWg2MIr8DuIT3xC2Hw==);strokeColor=#000000;spacingTop=-3;spacingBottom=-3;spacingLeft=-3;spacingRight=-3;points=[];labelBackgroundColor=none;rounded=0;html=1;whiteSpace=wrap;" parent="88" vertex="1">
          <mxGeometry x="60" width="160" height="30" as="geometry" />
        </mxCell>
        <mxCell id="91" value="&lt;div style=&quot;font-size: 1px&quot;&gt;&lt;font style=&quot;font-size:11.64px;font-family:Helvetica;color:#000000;direction:ltr;letter-spacing:0px;line-height:120%;opacity:1&quot;&gt;boolean&lt;/font&gt;&lt;/div&gt;" style="verticalAlign=middle;align=left;overflow=width;vsdxID=88;fillColor=none;gradientColor=none;shape=stencil(nZJZDsMgDERP43+Kj5Cm94gUUqxSiAjpcvuCrGahFVL4m8HPlkcYsJl0NyqQYgre3dST+qABzyAlWa08hagAW8BmcF5dvZttz37sEpnU3T3ShBf3idQhxXvrLgwashvwJKrRr/8LV6M7MIo14UDGLJWK4HuwGLyMZml+luRfPLhqaWg2MIr8DuIT3xC2Hw==);strokeColor=#000000;spacingTop=-3;spacingBottom=-3;spacingLeft=-3;spacingRight=-3;points=[];labelBackgroundColor=none;rounded=0;html=1;whiteSpace=wrap;" parent="88" vertex="1">
          <mxGeometry x="220" width="160" height="30" as="geometry" />
        </mxCell>
        <mxCell id="92" style="vsdxID=8910000;fillColor=none;gradientColor=none;strokeColor=none;spacingTop=-3;spacingBottom=-3;spacingLeft=-3;spacingRight=-3;points=[];labelBackgroundColor=none;rounded=0;html=1;whiteSpace=wrap;" parent="66" vertex="1">
          <mxGeometry y="210" width="380" height="30" as="geometry" />
        </mxCell>
        <mxCell id="93" style="vsdxID=90;fillColor=none;gradientColor=none;shape=stencil(nZJZDsMgDERP43+Kj5Cm94gUUqxSiAjpcvuCrGahFVL4m8HPlkcYsJl0NyqQYgre3dST+qABzyAlWa08hagAW8BmcF5dvZttz37sEpnU3T3ShBf3idQhxXvrLgwashvwJKrRr/8LV6M7MIo14UDGLJWK4HuwGLyMZml+luRfPLhqaWg2MIr8DuIT3xC2Hw==);strokeColor=#000000;spacingTop=-3;spacingBottom=-3;spacingLeft=-3;spacingRight=-3;points=[];labelBackgroundColor=none;rounded=0;html=1;whiteSpace=wrap;" parent="92" vertex="1">
          <mxGeometry width="60" height="30" as="geometry" />
        </mxCell>
        <mxCell id="94" value="&lt;div style=&quot;font-size: 1px&quot;&gt;&lt;font style=&quot;font-size:11.64px;font-family:Helvetica;color:#000000;direction:ltr;letter-spacing:0px;line-height:120%;opacity:1&quot;&gt;sync_status&lt;/font&gt;&lt;/div&gt;" style="verticalAlign=middle;align=left;overflow=width;vsdxID=91;fillColor=none;gradientColor=none;shape=stencil(nZJZDsMgDERP43+Kj5Cm94gUUqxSiAjpcvuCrGahFVL4m8HPlkcYsJl0NyqQYgre3dST+qABzyAlWa08hagAW8BmcF5dvZttz37sEpnU3T3ShBf3idQhxXvrLgwashvwJKrRr/8LV6M7MIo14UDGLJWK4HuwGLyMZml+luRfPLhqaWg2MIr8DuIT3xC2Hw==);strokeColor=#000000;spacingTop=-3;spacingBottom=-3;spacingLeft=-3;spacingRight=-3;points=[];labelBackgroundColor=none;rounded=0;html=1;whiteSpace=wrap;" parent="92" vertex="1">
          <mxGeometry x="60" width="160" height="30" as="geometry" />
        </mxCell>
        <mxCell id="95" value="&lt;div style=&quot;font-size: 1px&quot;&gt;&lt;font style=&quot;font-size:11.64px;font-family:Helvetica;color:#000000;direction:ltr;letter-spacing:0px;line-height:120%;opacity:1&quot;&gt;file_sync_status&lt;/font&gt;&lt;/div&gt;" style="verticalAlign=middle;align=left;overflow=width;vsdxID=92;fillColor=none;gradientColor=none;shape=stencil(nZJZDsMgDERP43+Kj5Cm94gUUqxSiAjpcvuCrGahFVL4m8HPlkcYsJl0NyqQYgre3dST+qABzyAlWa08hagAW8BmcF5dvZttz37sEpnU3T3ShBf3idQhxXvrLgwashvwJKrRr/8LV6M7MIo14UDGLJWK4HuwGLyMZml+luRfPLhqaWg2MIr8DuIT3xC2Hw==);strokeColor=#000000;spacingTop=-3;spacingBottom=-3;spacingLeft=-3;spacingRight=-3;points=[];labelBackgroundColor=none;rounded=0;html=1;whiteSpace=wrap;" parent="92" vertex="1">
          <mxGeometry x="220" width="160" height="30" as="geometry" />
        </mxCell>
        <UserObject label="" tags="Background" id="96">
          <mxCell style="vsdxID=9510000;fillColor=none;gradientColor=none;strokeColor=none;spacingTop=-3;spacingBottom=-3;spacingLeft=-3;spacingRight=-3;points=[];labelBackgroundColor=none;rounded=0;html=1;whiteSpace=wrap;" parent="1" vertex="1">
            <mxGeometry x="447" y="620" width="380" height="150" as="geometry" />
          </mxCell>
        </UserObject>
        <mxCell id="97" value="&lt;div style=&quot;font-size: 1px&quot;&gt;&lt;font style=&quot;font-size:11.64px;font-family:Helvetica;color:#000000;direction:ltr;letter-spacing:0px;line-height:120%;opacity:1&quot;&gt;&lt;b&gt;file_cache&lt;/b&gt;&lt;/font&gt;&lt;/div&gt;" style="verticalAlign=middle;align=center;overflow=width;vsdxID=95;fillColor=#ffffff;gradientColor=none;shape=stencil(rZRbDoMgFERXw69BqNV+W7sPE7GQUjFIX7svhD4CpARM/+bC4WaGXAC4XWg/E4DgoqQ4kRsbFAV4DxBiEyWSKa0A7gBuRyHJUYrLNNh67g1p1FlcTYe7PQfNCQQftnqVB0tyNv0kI2AJV6Muq8XX9sg4t6k/+//O9HaTZDULdj2sdZvTtayKepfeOaA3WfQ2i26yaO+i3ZhVXTTpMUM6FjOkYzFDOhYzpL2Yzux7c6+F/7z1kv0acPcE);strokeColor=#000000;spacingTop=-3;spacingBottom=-3;spacingLeft=-3;spacingRight=-3;points=[];labelBackgroundColor=none;rounded=0;html=1;whiteSpace=wrap;" parent="96" vertex="1">
          <mxGeometry width="380" height="150" as="geometry" />
        </mxCell>
        <mxCell id="98" style="vsdxID=9610000;fillColor=none;gradientColor=none;strokeColor=none;spacingTop=-3;spacingBottom=-3;spacingLeft=-3;spacingRight=-3;points=[];labelBackgroundColor=none;rounded=0;html=1;whiteSpace=wrap;" parent="96" vertex="1">
          <mxGeometry y="30" width="380" height="30" as="geometry" />
        </mxCell>
        <mxCell id="99" value="&lt;div style=&quot;font-size: 1px&quot;&gt;&lt;font style=&quot;font-size:11.64px;font-family:Helvetica;color:#000000;direction:ltr;letter-spacing:0px;line-height:120%;opacity:1&quot;&gt;&lt;b&gt;PK&lt;/b&gt;&lt;/font&gt;&lt;/div&gt;" style="verticalAlign=middle;align=center;overflow=width;vsdxID=97;fillColor=none;gradientColor=none;shape=stencil(nZJZDsMgDERP43+Kj5Cm94gUUqxSiAjpcvuCrGahFVL4m8HPlkcYsJl0NyqQYgre3dST+qABzyAlWa08hagAW8BmcF5dvZttz37sEpnU3T3ShBf3idQhxXvrLgwashvwJKrRr/8LV6M7MIo14UDGLJWK4HuwGLyMZml+luRfPLhqaWg2MIr8DuIT3xC2Hw==);strokeColor=#000000;spacingTop=-3;spacingBottom=-3;spacingLeft=-3;spacingRight=-3;points=[];labelBackgroundColor=none;rounded=0;html=1;whiteSpace=wrap;" parent="98" vertex="1">
          <mxGeometry width="60" height="30" as="geometry" />
        </mxCell>
        <mxCell id="100" value="&lt;div style=&quot;font-size: 1px&quot;&gt;&lt;font style=&quot;font-size:11.64px;font-family:Helvetica;color:#000000;direction:ltr;letter-spacing:0px;line-height:120%;opacity:1&quot;&gt;&lt;u&gt;&lt;b&gt;file_cache_id&lt;/b&gt;&lt;/u&gt;&lt;/font&gt;&lt;/div&gt;" style="verticalAlign=middle;align=left;overflow=width;vsdxID=98;fillColor=none;gradientColor=none;shape=stencil(nZJZDsMgDERP43+Kj5Cm94gUUqxSiAjpcvuCrGahFVL4m8HPlkcYsJl0NyqQYgre3dST+qABzyAlWa08hagAW8BmcF5dvZttz37sEpnU3T3ShBf3idQhxXvrLgwashvwJKrRr/8LV6M7MIo14UDGLJWK4HuwGLyMZml+luRfPLhqaWg2MIr8DuIT3xC2Hw==);strokeColor=#000000;spacingTop=-3;spacingBottom=-3;spacingLeft=-3;spacingRight=-3;points=[];labelBackgroundColor=none;rounded=0;html=1;whiteSpace=wrap;" parent="98" vertex="1">
          <mxGeometry x="60" width="160" height="30" as="geometry" />
        </mxCell>
        <mxCell id="101" value="&lt;div style=&quot;font-size: 1px&quot;&gt;&lt;font style=&quot;font-size:11.64px;font-family:Helvetica;color:#000000;direction:ltr;letter-spacing:0px;line-height:120%;opacity:1&quot;&gt;&lt;u&gt;&lt;b&gt;bigint&lt;/b&gt;&lt;/u&gt;&lt;/font&gt;&lt;/div&gt;" style="verticalAlign=middle;align=left;overflow=width;vsdxID=99;fillColor=none;gradientColor=none;shape=stencil(nZJZDsMgDERP43+Kj5Cm94gUUqxSiAjpcvuCrGahFVL4m8HPlkcYsJl0NyqQYgre3dST+qABzyAlWa08hagAW8BmcF5dvZttz37sEpnU3T3ShBf3idQhxXvrLgwashvwJKrRr/8LV6M7MIo14UDGLJWK4HuwGLyMZml+luRfPLhqaWg2MIr8DuIT3xC2Hw==);strokeColor=#000000;spacingTop=-3;spacingBottom=-3;spacingLeft=-3;spacingRight=-3;points=[];labelBackgroundColor=none;rounded=0;html=1;whiteSpace=wrap;" parent="98" vertex="1">
          <mxGeometry x="220" width="160" height="30" as="geometry" />
        </mxCell>
        <mxCell id="102" style="vsdxID=9410000;fillColor=none;gradientColor=none;strokeColor=none;spacingTop=-3;spacingBottom=-3;spacingLeft=-3;spacingRight=-3;points=[];labelBackgroundColor=none;rounded=0;html=1;whiteSpace=wrap;" parent="96" vertex="1">
          <mxGeometry y="60" width="380" height="30" as="geometry" />
        </mxCell>
        <mxCell id="103" value="&lt;div style=&quot;font-size: 1px&quot;&gt;&lt;font style=&quot;font-size:11.64px;font-family:Helvetica;color:#000000;direction:ltr;letter-spacing:0px;line-height:120%;opacity:1&quot;&gt;FK&lt;/font&gt;&lt;/div&gt;" style="verticalAlign=middle;align=center;overflow=width;vsdxID=100;fillColor=none;gradientColor=none;shape=stencil(nZJZDsMgDERP43+Kj5Cm94gUUqxSiAjpcvuCrGahFVL4m8HPlkcYsJl0NyqQYgre3dST+qABzyAlWa08hagAW8BmcF5dvZttz37sEpnU3T3ShBf3idQhxXvrLgwashvwJKrRr/8LV6M7MIo14UDGLJWK4HuwGLyMZml+luRfPLhqaWg2MIr8DuIT3xC2Hw==);strokeColor=#000000;spacingTop=-3;spacingBottom=-3;spacingLeft=-3;spacingRight=-3;points=[];labelBackgroundColor=none;rounded=0;html=1;whiteSpace=wrap;" parent="102" vertex="1">
          <mxGeometry width="60" height="30" as="geometry" />
        </mxCell>
        <mxCell id="104" value="&lt;div style=&quot;font-size: 1px&quot;&gt;&lt;font style=&quot;font-size:11.64px;font-family:Helvetica;color:#000000;direction:ltr;letter-spacing:0px;line-height:120%;opacity:1&quot;&gt;file_id&lt;/font&gt;&lt;/div&gt;" style="verticalAlign=middle;align=left;overflow=width;vsdxID=101;fillColor=none;gradientColor=none;shape=stencil(nZJZDsMgDERP43+Kj5Cm94gUUqxSiAjpcvuCrGahFVL4m8HPlkcYsJl0NyqQYgre3dST+qABzyAlWa08hagAW8BmcF5dvZttz37sEpnU3T3ShBf3idQhxXvrLgwashvwJKrRr/8LV6M7MIo14UDGLJWK4HuwGLyMZml+luRfPLhqaWg2MIr8DuIT3xC2Hw==);strokeColor=#000000;spacingTop=-3;spacingBottom=-3;spacingLeft=-3;spacingRight=-3;points=[];labelBackgroundColor=none;rounded=0;html=1;whiteSpace=wrap;" parent="102" vertex="1">
          <mxGeometry x="60" width="160" height="30" as="geometry" />
        </mxCell>
        <mxCell id="105" value="&lt;div style=&quot;font-size: 1px&quot;&gt;&lt;font style=&quot;font-size:11.64px;font-family:Helvetica;color:#000000;direction:ltr;letter-spacing:0px;line-height:120%;opacity:1&quot;&gt;text&lt;/font&gt;&lt;/div&gt;" style="verticalAlign=middle;align=left;overflow=width;vsdxID=102;fillColor=none;gradientColor=none;shape=stencil(nZJZDsMgDERP43+Kj5Cm94gUUqxSiAjpcvuCrGahFVL4m8HPlkcYsJl0NyqQYgre3dST+qABzyAlWa08hagAW8BmcF5dvZttz37sEpnU3T3ShBf3idQhxXvrLgwashvwJKrRr/8LV6M7MIo14UDGLJWK4HuwGLyMZml+luRfPLhqaWg2MIr8DuIT3xC2Hw==);strokeColor=#000000;spacingTop=-3;spacingBottom=-3;spacingLeft=-3;spacingRight=-3;points=[];labelBackgroundColor=none;rounded=0;html=1;whiteSpace=wrap;" parent="102" vertex="1">
          <mxGeometry x="220" width="160" height="30" as="geometry" />
        </mxCell>
        <mxCell id="106" style="vsdxID=10310000;fillColor=none;gradientColor=none;strokeColor=none;spacingTop=-3;spacingBottom=-3;spacingLeft=-3;spacingRight=-3;points=[];labelBackgroundColor=none;rounded=0;html=1;whiteSpace=wrap;" parent="96" vertex="1">
          <mxGeometry y="90" width="380" height="30" as="geometry" />
        </mxCell>
        <mxCell id="107" style="vsdxID=104;fillColor=none;gradientColor=none;shape=stencil(nZJZDsMgDERP43+Kj5Cm94gUUqxSiAjpcvuCrGahFVL4m8HPlkcYsJl0NyqQYgre3dST+qABzyAlWa08hagAW8BmcF5dvZttz37sEpnU3T3ShBf3idQhxXvrLgwashvwJKrRr/8LV6M7MIo14UDGLJWK4HuwGLyMZml+luRfPLhqaWg2MIr8DuIT3xC2Hw==);strokeColor=#000000;spacingTop=-3;spacingBottom=-3;spacingLeft=-3;spacingRight=-3;points=[];labelBackgroundColor=none;rounded=0;html=1;whiteSpace=wrap;" parent="106" vertex="1">
          <mxGeometry width="60" height="30" as="geometry" />
        </mxCell>
        <mxCell id="108" value="&lt;div style=&quot;font-size: 1px&quot;&gt;&lt;font style=&quot;font-size:11.64px;font-family:Helvetica;color:#000000;direction:ltr;letter-spacing:0px;line-height:120%;opacity:1&quot;&gt;expiration&lt;/font&gt;&lt;/div&gt;" style="verticalAlign=middle;align=left;overflow=width;vsdxID=105;fillColor=none;gradientColor=none;shape=stencil(nZJZDsMgDERP43+Kj5Cm94gUUqxSiAjpcvuCrGahFVL4m8HPlkcYsJl0NyqQYgre3dST+qABzyAlWa08hagAW8BmcF5dvZttz37sEpnU3T3ShBf3idQhxXvrLgwashvwJKrRr/8LV6M7MIo14UDGLJWK4HuwGLyMZml+luRfPLhqaWg2MIr8DuIT3xC2Hw==);strokeColor=#000000;spacingTop=-3;spacingBottom=-3;spacingLeft=-3;spacingRight=-3;points=[];labelBackgroundColor=none;rounded=0;html=1;whiteSpace=wrap;" parent="106" vertex="1">
          <mxGeometry x="60" width="160" height="30" as="geometry" />
        </mxCell>
        <mxCell id="109" value="&lt;div style=&quot;font-size: 1px&quot;&gt;&lt;font style=&quot;font-size:11.64px;font-family:Helvetica;color:#000000;direction:ltr;letter-spacing:0px;line-height:120%;opacity:1&quot;&gt;datetime&lt;/font&gt;&lt;/div&gt;" style="verticalAlign=middle;align=left;overflow=width;vsdxID=106;fillColor=none;gradientColor=none;shape=stencil(nZJZDsMgDERP43+Kj5Cm94gUUqxSiAjpcvuCrGahFVL4m8HPlkcYsJl0NyqQYgre3dST+qABzyAlWa08hagAW8BmcF5dvZttz37sEpnU3T3ShBf3idQhxXvrLgwashvwJKrRr/8LV6M7MIo14UDGLJWK4HuwGLyMZml+luRfPLhqaWg2MIr8DuIT3xC2Hw==);strokeColor=#000000;spacingTop=-3;spacingBottom=-3;spacingLeft=-3;spacingRight=-3;points=[];labelBackgroundColor=none;rounded=0;html=1;whiteSpace=wrap;" parent="106" vertex="1">
          <mxGeometry x="220" width="160" height="30" as="geometry" />
        </mxCell>
        <mxCell id="110" style="vsdxID=10710000;fillColor=none;gradientColor=none;strokeColor=none;spacingTop=-3;spacingBottom=-3;spacingLeft=-3;spacingRight=-3;points=[];labelBackgroundColor=none;rounded=0;html=1;whiteSpace=wrap;" parent="96" vertex="1">
          <mxGeometry y="120" width="380" height="30" as="geometry" />
        </mxCell>
        <mxCell id="111" style="vsdxID=108;fillColor=none;gradientColor=none;shape=stencil(nZJZDsMgDERP43+Kj5Cm94gUUqxSiAjpcvuCrGahFVL4m8HPlkcYsJl0NyqQYgre3dST+qABzyAlWa08hagAW8BmcF5dvZttz37sEpnU3T3ShBf3idQhxXvrLgwashvwJKrRr/8LV6M7MIo14UDGLJWK4HuwGLyMZml+luRfPLhqaWg2MIr8DuIT3xC2Hw==);strokeColor=#000000;spacingTop=-3;spacingBottom=-3;spacingLeft=-3;spacingRight=-3;points=[];labelBackgroundColor=none;rounded=0;html=1;whiteSpace=wrap;" parent="110" vertex="1">
          <mxGeometry width="60" height="30" as="geometry" />
        </mxCell>
        <mxCell id="112" value="&lt;div style=&quot;font-size: 1px&quot;&gt;&lt;font style=&quot;font-size:11.64px;font-family:Helvetica;color:#000000;direction:ltr;letter-spacing:0px;line-height:120%;opacity:1&quot;&gt;created&lt;/font&gt;&lt;/div&gt;" style="verticalAlign=middle;align=left;overflow=width;vsdxID=109;fillColor=none;gradientColor=none;shape=stencil(nZJZDsMgDERP43+Kj5Cm94gUUqxSiAjpcvuCrGahFVL4m8HPlkcYsJl0NyqQYgre3dST+qABzyAlWa08hagAW8BmcF5dvZttz37sEpnU3T3ShBf3idQhxXvrLgwashvwJKrRr/8LV6M7MIo14UDGLJWK4HuwGLyMZml+luRfPLhqaWg2MIr8DuIT3xC2Hw==);strokeColor=#000000;spacingTop=-3;spacingBottom=-3;spacingLeft=-3;spacingRight=-3;points=[];labelBackgroundColor=none;rounded=0;html=1;whiteSpace=wrap;" parent="110" vertex="1">
          <mxGeometry x="60" width="160" height="30" as="geometry" />
        </mxCell>
        <mxCell id="113" value="&lt;div style=&quot;font-size: 1px&quot;&gt;&lt;font style=&quot;font-size:11.64px;font-family:Helvetica;color:#000000;direction:ltr;letter-spacing:0px;line-height:120%;opacity:1&quot;&gt;datetime&lt;/font&gt;&lt;/div&gt;" style="verticalAlign=middle;align=left;overflow=width;vsdxID=110;fillColor=none;gradientColor=none;shape=stencil(nZJZDsMgDERP43+Kj5Cm94gUUqxSiAjpcvuCrGahFVL4m8HPlkcYsJl0NyqQYgre3dST+qABzyAlWa08hagAW8BmcF5dvZttz37sEpnU3T3ShBf3idQhxXvrLgwashvwJKrRr/8LV6M7MIo14UDGLJWK4HuwGLyMZml+luRfPLhqaWg2MIr8DuIT3xC2Hw==);strokeColor=#000000;spacingTop=-3;spacingBottom=-3;spacingLeft=-3;spacingRight=-3;points=[];labelBackgroundColor=none;rounded=0;html=1;whiteSpace=wrap;" parent="110" vertex="1">
          <mxGeometry x="220" width="160" height="30" as="geometry" />
        </mxCell>
        <mxCell id="114" parent="1" vertex="1">
          <mxGeometry x="450" y="225" as="geometry" />
        </mxCell>
        <mxCell id="115" parent="1" vertex="1">
          <mxGeometry x="380" y="225" as="geometry" />
        </mxCell>
        <UserObject label="" tags="Background" id="116">
          <mxCell style="vsdxID=62;edgeStyle=none;startArrow=none;endArrow=classic;startSize=5;endSize=5;strokeColor=#000000;spacingTop=0;spacingBottom=0;spacingLeft=0;spacingRight=0;verticalAlign=middle;html=1;labelBackgroundColor=#ffffff;rounded=0;" parent="1" source="114" target="115" edge="1">
            <mxGeometry relative="1" as="geometry">
              <mxPoint x="35" y="102" as="offset" />
              <Array as="points" />
            </mxGeometry>
          </mxCell>
        </UserObject>
        <mxCell id="117" parent="1" vertex="1">
          <mxGeometry x="60" y="475" as="geometry" />
        </mxCell>
        <mxCell id="118" parent="1" vertex="1">
          <mxGeometry x="60" y="255" as="geometry" />
        </mxCell>
        <UserObject label="" tags="Background" id="119">
          <mxCell style="vsdxID=63;edgeStyle=none;startArrow=none;endArrow=classic;startSize=5;endSize=5;strokeColor=#000000;spacingTop=0;spacingBottom=0;spacingLeft=0;spacingRight=0;verticalAlign=middle;html=1;labelBackgroundColor=#ffffff;rounded=0;" parent="1" source="117" target="118" edge="1">
            <mxGeometry relative="1" as="geometry">
              <mxPoint x="30" y="211" as="offset" />
              <Array as="points">
                <mxPoint x="30" y="475" />
                <mxPoint x="30" y="255" />
              </Array>
            </mxGeometry>
          </mxCell>
        </UserObject>
        <mxCell id="120" parent="1" vertex="1">
          <mxGeometry x="827" y="695" as="geometry" />
        </mxCell>
        <mxCell id="121" parent="1" vertex="1">
          <mxGeometry x="830" y="385" as="geometry" />
        </mxCell>
        <UserObject label="" tags="Background" id="122">
          <mxCell style="vsdxID=93;edgeStyle=none;startArrow=none;endArrow=classic;startSize=5;endSize=5;strokeColor=#000000;spacingTop=0;spacingBottom=0;spacingLeft=0;spacingRight=0;verticalAlign=middle;html=1;labelBackgroundColor=#ffffff;rounded=0;" parent="1" source="120" target="121" edge="1">
            <mxGeometry relative="1" as="geometry">
              <mxPoint x="-33" y="255" as="offset" />
              <Array as="points">
                <mxPoint x="860" y="695" />
                <mxPoint x="860" y="385" />
              </Array>
            </mxGeometry>
          </mxCell>
        </UserObject>
      </root>
    </mxGraphModel>
  </diagram>
</mxfile>
